<svg id="Layer_1" data-name="Layer 1" xmlns="http://www.w3.org/2000/svg" viewBox="0 0 18 18"><defs><style>.cls-1{fill:#3fa3ba;}</style></defs><title>bullet</title><path class="cls-1" d="M2311.28,941.08a7.31,7.31,0,1,1-7.31,7.31,7.32,7.32,0,0,1,7.31-7.31m0-1.69h0a9,9,0,0,0-9,9h0a9,9,0,0,0,9,9h0a9,9,0,0,0,9-9h0a9,9,0,0,0-9-9h0Z" transform="translate(-2302.28 -939.39)"/><path class="cls-1" d="M2311.37,953.71a5.23,5.23,0,0,1-5.23-5.23,0.84,0.84,0,1,1,1.69,0,3.54,3.54,0,0,0,3.54,3.54A0.84,0.84,0,0,1,2311.37,953.71Z" transform="translate(-2302.28 -939.39)"/><path class="cls-1" d="M2315.75,949.32a0.84,0.84,0,0,1-.84-0.84,3.54,3.54,0,0,0-3.54-3.54,0.84,0.84,0,0,1,0-1.69,5.23,5.23,0,0,1,5.23,5.23A0.84,0.84,0,0,1,2315.75,949.32Z" transform="translate(-2302.28 -939.39)"/></svg>