<?xml version="1.0" encoding="UTF-8"?>
<svg width="840px" height="120px" viewBox="0 0 840 120" version="1.1" xmlns="http://www.w3.org/2000/svg" xmlns:xlink="http://www.w3.org/1999/xlink">
    <!-- Generator: Sketch 40.3 (33839) - http://www.bohemiancoding.com/sketch -->
    <title>light-rinser</title>
    <desc>Created with Sketch.</desc>
    <defs>
        <rect id="path-1" x="0" y="0" width="840" height="120" rx="8"></rect>
    </defs>
    <g id="Page-1" stroke="none" stroke-width="1" fill="none" fill-rule="evenodd">
        <g id="light-rinser">
            <g id="Page-1">
                <g id="Group-3">
                    <g id="Rectangle-Clipped">
                        <mask id="mask-2" fill="white">
                            <use xlink:href="#path-1"></use>
                        </mask>
                        <g id="path-1"></g>
                        <g id="Rectangle" mask="url(#mask-2)" stroke="#979797" stroke-width="4" fill="#FFFFFF">
                            <rect id="path-1" x="0" y="0" width="840" height="120" rx="8"></rect>
                        </g>
                    </g>
                    <path d="M117.936,64.032 C118.064001,64.1600006 118.128,64.3119991 118.128,64.488 L118.128,65.352 C118.128,65.5280009 118.064001,65.6799994 117.936,65.808 C117.807999,65.9360006 117.656001,66 117.48,66 L107.712,66 C107.535999,66 107.384001,65.9360006 107.256,65.808 C107.127999,65.6799994 107.064,65.5280009 107.064,65.352 L107.064,49.848 C107.064,49.6719991 107.127999,49.5200006 107.256,49.392 C107.384001,49.2639994 107.535999,49.2 107.712,49.2 L108.696,49.2 C108.872001,49.2 109.023999,49.2639994 109.152,49.392 C109.280001,49.5200006 109.344,49.6719991 109.344,49.848 L109.344,63.84 L117.48,63.84 C117.656001,63.84 117.807999,63.9039994 117.936,64.032 L117.936,64.032 Z M122.616,51.432 C122.487999,51.5600006 122.336001,51.624 122.16,51.624 L120.792,51.624 C120.615999,51.624 120.464001,51.5600006 120.336,51.432 C120.207999,51.3039994 120.144,51.1520009 120.144,50.976 L120.144,49.608 C120.144,49.4319991 120.207999,49.2800006 120.336,49.152 C120.464001,49.0239994 120.615999,48.96 120.792,48.96 L122.16,48.96 C122.336001,48.96 122.487999,49.0239994 122.616,49.152 C122.744001,49.2800006 122.808,49.4319991 122.808,49.608 L122.808,50.976 C122.808,51.1520009 122.744001,51.3039994 122.616,51.432 L122.616,51.432 Z M122.376,65.808 C122.247999,65.9360006 122.096001,66 121.92,66 L121.032,66 C120.855999,66 120.704001,65.9360006 120.576,65.808 C120.447999,65.6799994 120.384,65.5280009 120.384,65.352 L120.384,54.168 C120.384,53.9919991 120.447999,53.8400006 120.576,53.712 C120.704001,53.5839994 120.855999,53.52 121.032,53.52 L121.92,53.52 C122.096001,53.52 122.247999,53.5839994 122.376,53.712 C122.504001,53.8400006 122.568,53.9919991 122.568,54.168 L122.568,65.352 C122.568,65.5280009 122.504001,65.6799994 122.376,65.808 L122.376,65.808 Z M133.284,53.748 C133.900003,54.0600016 134.383998,54.4479977 134.736,54.912 L134.736,54.168 C134.736,53.9919991 134.799999,53.8400006 134.928,53.712 C135.056001,53.5839994 135.207999,53.52 135.384,53.52 L136.272,53.52 C136.448001,53.52 136.599999,53.5839994 136.728,53.712 C136.856001,53.8400006 136.92,53.9919991 136.92,54.168 L136.92,65.832 C136.92,67.5280085 136.440005,68.8599952 135.48,69.828 C134.519995,70.7960048 133.112009,71.28 131.256,71.28 C130.055994,71.28 129.048004,71.0960018 128.232,70.728 C127.415996,70.3599982 126.812002,69.9040027 126.42,69.36 C126.027998,68.8159973 125.816,68.2640028 125.784,67.704 C125.768,67.5279991 125.827999,67.3760006 125.964,67.248 C126.100001,67.1199994 126.255999,67.056 126.432,67.056 L127.152,67.056 C127.344001,67.056 127.495999,67.1039995 127.608,67.2 C127.720001,67.2960005 127.831999,67.4639988 127.944,67.704 C128.104001,68.0720018 128.407998,68.4159984 128.856,68.736 C129.304002,69.0560016 130.023995,69.216 131.016,69.216 C133.496012,69.216 134.736,68.1840103 134.736,66.12 L134.736,64.608 C133.919996,65.6960054 132.680008,66.24 131.016,66.24 C130.023995,66.24 129.124004,66.0080023 128.316,65.544 C127.507996,65.0799977 126.860002,64.4200043 126.372,63.564 C125.883998,62.7079957 125.616,61.7040058 125.568,60.552 L125.544,59.76 L125.568,58.968 C125.616,57.8159942 125.883998,56.8120043 126.372,55.956 C126.860002,55.0999957 127.503996,54.4400023 128.304,53.976 C129.104004,53.5119977 130.007995,53.28 131.016,53.28 C131.912004,53.28 132.667997,53.4359984 133.284,53.748 L133.284,53.748 Z M128.772,56.352 C128.155997,57.0240034 127.816,57.9359942 127.752,59.088 L127.728,59.76 L127.752,60.432 C127.816,61.5840058 128.155997,62.4959966 128.772,63.168 C129.388003,63.8400034 130.215995,64.176 131.256,64.176 C132.280005,64.176 133.103997,63.8600032 133.728,63.228 C134.352003,62.5959968 134.688,61.7280055 134.736,60.624 C134.752,60.4639992 134.76,60.1760021 134.76,59.76 C134.76,59.3439979 134.752,59.0560008 134.736,58.896 C134.688,57.7759944 134.352003,56.9040031 133.728,56.28 C133.103997,55.6559969 132.280005,55.344 131.256,55.344 C130.215995,55.344 129.388003,55.6799966 128.772,56.352 L128.772,56.352 Z M151.416,65.808 C151.287999,65.9360006 151.136001,66 150.96,66 L150.072,66 C149.895999,66 149.744001,65.9360006 149.616,65.808 C149.487999,65.6799994 149.424,65.5280009 149.424,65.352 L149.424,59.016 C149.424,57.815994 149.128003,56.9040031 148.536,56.28 C147.943997,55.6559969 147.120005,55.344 146.064,55.344 C145.023995,55.344 144.204003,55.6559969 143.604,56.28 C143.003997,56.9040031 142.704,57.815994 142.704,59.016 L142.704,65.352 C142.704,65.5280009 142.640001,65.6799994 142.512,65.808 C142.383999,65.9360006 142.232001,66 142.056,66 L141.168,66 C140.991999,66 140.840001,65.9360006 140.712,65.808 C140.583999,65.6799994 140.52,65.5280009 140.52,65.352 L140.52,49.608 C140.52,49.4319991 140.583999,49.2800006 140.712,49.152 C140.840001,49.0239994 140.991999,48.96 141.168,48.96 L142.056,48.96 C142.232001,48.96 142.383999,49.0239994 142.512,49.152 C142.640001,49.2800006 142.704,49.4319991 142.704,49.608 L142.704,54.912 C143.056002,54.4479977 143.539997,54.0600016 144.156,53.748 C144.772003,53.4359984 145.527996,53.28 146.424,53.28 C147.432005,53.28 148.327996,53.4959978 149.112,53.928 C149.896004,54.3600022 150.507998,54.979996 150.948,55.788 C151.388002,56.596004 151.608,57.5519945 151.608,58.656 L151.608,65.352 C151.608,65.5280009 151.544001,65.6799994 151.416,65.808 L151.416,65.808 Z M158.58,63.384 C158.860001,63.7520018 159.391996,63.936 160.176,63.936 L161.448,63.936 C161.624001,63.936 161.775999,63.9999994 161.904,64.128 C162.032001,64.2560006 162.096,64.4079991 162.096,64.584 L162.096,65.352 C162.096,65.5280009 162.032001,65.6799994 161.904,65.808 C161.775999,65.9360006 161.624001,66 161.448,66 L159.936,66 C158.575993,66 157.576003,65.6440036 156.936,64.932 C156.295997,64.2199964 155.976,63.1760069 155.976,61.8 L155.976,55.584 L154.2,55.584 C154.023999,55.584 153.872001,55.5200006 153.744,55.392 C153.615999,55.2639994 153.552,55.1120009 153.552,54.936 L153.552,54.168 C153.552,53.9919991 153.615999,53.8400006 153.744,53.712 C153.872001,53.5839994 154.023999,53.52 154.2,53.52 L155.976,53.52 L155.976,49.608 C155.976,49.4319991 156.039999,49.2800006 156.168,49.152 C156.296001,49.0239994 156.447999,48.96 156.624,48.96 L157.512,48.96 C157.688001,48.96 157.839999,49.0239994 157.968,49.152 C158.096001,49.2800006 158.16,49.4319991 158.16,49.608 L158.16,53.52 L161.208,53.52 C161.384001,53.52 161.535999,53.5839994 161.664,53.712 C161.792001,53.8400006 161.856,53.9919991 161.856,54.168 L161.856,54.936 C161.856,55.1120009 161.792001,55.2639994 161.664,55.392 C161.535999,55.5200006 161.384001,55.584 161.208,55.584 L158.16,55.584 L158.16,61.8 C158.16,62.4880034 158.299999,63.0159982 158.58,63.384 L158.58,63.384 Z M181.224,50.436 C182.312005,51.2600041 182.856,52.5039917 182.856,54.168 C182.856,55.4160062 182.544003,56.4319961 181.92,57.216 C181.295997,58.0000039 180.456005,58.5599983 179.4,58.896 L183.024,65.208 C183.072,65.3040005 183.096,65.3919996 183.096,65.472 C183.096,65.6160007 183.044001,65.7399995 182.94,65.844 C182.835999,65.9480005 182.712001,66 182.568,66 L181.536,66 C181.087998,66 180.744001,65.7840022 180.504,65.352 L177.024,59.232 L172.896,59.232 L172.896,65.352 C172.896,65.5280009 172.832001,65.6799994 172.704,65.808 C172.575999,65.9360006 172.424001,66 172.248,66 L171.264,66 C171.087999,66 170.936001,65.9360006 170.808,65.808 C170.679999,65.6799994 170.616,65.5280009 170.616,65.352 L170.616,49.848 C170.616,49.6719991 170.679999,49.5200006 170.808,49.392 C170.936001,49.2639994 171.087999,49.2 171.264,49.2 L177.072,49.2 C178.752008,49.2 180.135995,49.6119959 181.224,50.436 L181.224,50.436 Z M176.952,57.072 C179.368012,57.072 180.576,56.1040097 180.576,54.168 C180.576,53.175995 180.272003,52.4600022 179.664,52.02 C179.055997,51.5799978 178.152006,51.36 176.952,51.36 L172.896,51.36 L172.896,57.072 L176.952,57.072 Z M188.208,51.432 C188.079999,51.5600006 187.928001,51.624 187.752,51.624 L186.384,51.624 C186.207999,51.624 186.056001,51.5600006 185.928,51.432 C185.799999,51.3039994 185.736,51.1520009 185.736,50.976 L185.736,49.608 C185.736,49.4319991 185.799999,49.2800006 185.928,49.152 C186.056001,49.0239994 186.207999,48.96 186.384,48.96 L187.752,48.96 C187.928001,48.96 188.079999,49.0239994 188.208,49.152 C188.336001,49.2800006 188.4,49.4319991 188.4,49.608 L188.4,50.976 C188.4,51.1520009 188.336001,51.3039994 188.208,51.432 L188.208,51.432 Z M187.968,65.808 C187.839999,65.9360006 187.688001,66 187.512,66 L186.624,66 C186.447999,66 186.296001,65.9360006 186.168,65.808 C186.039999,65.6799994 185.976,65.5280009 185.976,65.352 L185.976,54.168 C185.976,53.9919991 186.039999,53.8400006 186.168,53.712 C186.296001,53.5839994 186.447999,53.52 186.624,53.52 L187.512,53.52 C187.688001,53.52 187.839999,53.5839994 187.968,53.712 C188.096001,53.8400006 188.16,53.9919991 188.16,54.168 L188.16,65.352 C188.16,65.5280009 188.096001,65.6799994 187.968,65.808 L187.968,65.808 Z M202.656,65.808 C202.527999,65.9360006 202.376001,66 202.2,66 L201.312,66 C201.135999,66 200.984001,65.9360006 200.856,65.808 C200.727999,65.6799994 200.664,65.5280009 200.664,65.352 L200.664,59.016 C200.664,57.815994 200.368003,56.9040031 199.776,56.28 C199.183997,55.6559969 198.360005,55.344 197.304,55.344 C196.263995,55.344 195.444003,55.6559969 194.844,56.28 C194.243997,56.9040031 193.944,57.815994 193.944,59.016 L193.944,65.352 C193.944,65.5280009 193.880001,65.6799994 193.752,65.808 C193.623999,65.9360006 193.472001,66 193.296,66 L192.408,66 C192.231999,66 192.080001,65.9360006 191.952,65.808 C191.823999,65.6799994 191.76,65.5280009 191.76,65.352 L191.76,54.168 C191.76,53.9919991 191.823999,53.8400006 191.952,53.712 C192.080001,53.5839994 192.231999,53.52 192.408,53.52 L193.296,53.52 C193.472001,53.52 193.623999,53.5839994 193.752,53.712 C193.880001,53.8400006 193.944,53.9919991 193.944,54.168 L193.944,54.912 C194.296002,54.4479977 194.779997,54.0600016 195.396,53.748 C196.012003,53.4359984 196.767996,53.28 197.664,53.28 C198.672005,53.28 199.567996,53.4959978 200.352,53.928 C201.136004,54.3600022 201.747998,54.979996 202.188,55.788 C202.628002,56.596004 202.848,57.5519945 202.848,58.656 L202.848,65.352 C202.848,65.5280009 202.784001,65.6799994 202.656,65.808 L202.656,65.808 Z M205.824,56.88 C205.824,56.2239967 205.999998,55.6240027 206.352,55.08 C206.704002,54.5359973 207.227997,54.1000016 207.924,53.772 C208.620003,53.4439984 209.471995,53.28 210.48,53.28 C211.472005,53.28 212.327996,53.4239986 213.048,53.712 C213.768004,54.0000014 214.315998,54.3599978 214.692,54.792 C215.068002,55.2240022 215.256,55.639998 215.256,56.04 C215.256,56.2000008 215.192001,56.3399994 215.064,56.46 C214.935999,56.5800006 214.784001,56.64 214.608,56.64 L213.816,56.64 C213.511998,56.64 213.272001,56.5280011 213.096,56.304 C212.599998,55.6639968 211.728006,55.344 210.48,55.344 C209.743996,55.344 209.148002,55.4799986 208.692,55.752 C208.235998,56.0240014 208.008,56.3999976 208.008,56.88 C208.008,57.280002 208.119999,57.583999 208.344,57.792 C208.568001,58.000001 208.903998,58.1679994 209.352,58.296 C209.800002,58.4240006 210.591994,58.6159987 211.728,58.872 C213.136007,59.1760015 214.135997,59.6399969 214.728,60.264 C215.320003,60.8880031 215.616,61.6479955 215.616,62.544 C215.616,63.2000033 215.412002,63.8079972 215.004,64.368 C214.595998,64.9280028 214.012004,65.3799983 213.252,65.724 C212.491996,66.0680017 211.608005,66.24 210.6,66.24 C209.607995,66.24 208.732004,66.0840016 207.972,65.772 C207.211996,65.4599984 206.624002,65.0800022 206.208,64.632 C205.791998,64.1839978 205.584,63.760002 205.584,63.36 C205.584,63.1999992 205.647999,63.0600006 205.776,62.94 C205.904001,62.8199994 206.055999,62.76 206.232,62.76 L207.096,62.76 C207.240001,62.76 207.367999,62.7759998 207.48,62.808 C207.592001,62.8400002 207.696,62.9279993 207.792,63.072 C208.320003,63.8080037 209.255993,64.176 210.6,64.176 C211.352004,64.176 212.011997,64.0200016 212.58,63.708 C213.148003,63.3959984 213.432,63.0080023 213.432,62.544 C213.432,62.1599981 213.292001,61.8520012 213.012,61.62 C212.731999,61.3879988 212.328003,61.1960008 211.8,61.044 C211.271997,60.8919992 210.448006,60.6960012 209.328,60.456 C206.991988,59.9599975 205.824,58.7680094 205.824,56.88 L205.824,56.88 Z M227.448,54.912 C228.440005,56.0000054 228.936,57.4799906 228.936,59.352 L228.936,60 C228.936,60.1760009 228.872001,60.3279994 228.744,60.456 C228.615999,60.5840006 228.464001,60.648 228.288,60.648 L220.032,60.648 L220.032,60.792 C220.064,61.8480053 220.387997,62.675997 221.004,63.276 C221.620003,63.876003 222.415995,64.176 223.392,64.176 C224.192004,64.176 224.811998,64.072001 225.252,63.864 C225.692002,63.655999 226.087998,63.3600019 226.44,62.976 C226.568001,62.8479994 226.683999,62.7600002 226.788,62.712 C226.892001,62.6639998 227.031999,62.64 227.208,62.64 L227.928,62.64 C228.120001,62.64 228.279999,62.7039994 228.408,62.832 C228.536001,62.9600006 228.592,63.1119991 228.576,63.288 C228.512,63.7200022 228.276002,64.1639977 227.868,64.62 C227.459998,65.0760023 226.876004,65.4599984 226.116,65.772 C225.355996,66.0840016 224.448005,66.24 223.392,66.24 C222.367995,66.24 221.456004,66.0040024 220.656,65.532 C219.855996,65.0599976 219.220002,64.4080042 218.748,63.576 C218.275998,62.7439958 217.992,61.8080052 217.896,60.768 C217.864,60.2879976 217.848,59.9200013 217.848,59.664 C217.848,59.4079987 217.864,59.0400024 217.896,58.56 C217.992,57.567995 218.275998,56.672004 218.748,55.872 C219.220002,55.071996 219.851996,54.4400023 220.644,53.976 C221.436004,53.5119977 222.351995,53.28 223.392,53.28 C225.104009,53.28 226.455995,53.8239946 227.448,54.912 L227.448,54.912 Z M226.776,58.632 L226.776,58.56 C226.776,57.5839951 226.468003,56.8040029 225.852,56.22 C225.235997,55.6359971 224.416005,55.344 223.392,55.344 C222.463995,55.344 221.676003,55.639997 221.028,56.232 C220.379997,56.824003 220.048,57.5999952 220.032,58.56 L220.032,58.632 L226.776,58.632 Z M238.632,53.712 C238.760001,53.8400006 238.824,53.9919991 238.824,54.168 L238.824,54.936 C238.824,55.1120009 238.760001,55.2639994 238.632,55.392 C238.503999,55.5200006 238.352001,55.584 238.176,55.584 L236.784,55.584 C235.887996,55.584 235.204002,55.8199976 234.732,56.292 C234.259998,56.7640024 234.024,57.4479955 234.024,58.344 L234.024,65.352 C234.024,65.5280009 233.960001,65.6799994 233.832,65.808 C233.703999,65.9360006 233.552001,66 233.376,66 L232.488,66 C232.311999,66 232.160001,65.9360006 232.032,65.808 C231.903999,65.6799994 231.84,65.5280009 231.84,65.352 L231.84,54.168 C231.84,53.9919991 231.903999,53.8400006 232.032,53.712 C232.160001,53.5839994 232.311999,53.52 232.488,53.52 L233.376,53.52 C233.552001,53.52 233.703999,53.5839994 233.832,53.712 C233.960001,53.8400006 234.024,53.9919991 234.024,54.168 L234.024,54.912 C234.344002,54.4319976 234.727998,54.0800011 235.176,53.856 C235.624002,53.6319989 236.207996,53.52 236.928,53.52 L238.176,53.52 C238.352001,53.52 238.503999,53.5839994 238.632,53.712 L238.632,53.712 Z" id="Light-Rinser" fill="#000000"></path>
                    <path d="M517.98,56.73 C517.886666,56.8166671 517.780001,56.86 517.66,56.86 L516.84,56.86 C516.679999,56.86 516.56,56.8300003 516.48,56.77 C516.4,56.7099997 516.313334,56.5933342 516.22,56.42 C516.006666,56.0066646 515.636669,55.600002 515.11,55.2 C514.583331,54.799998 513.886671,54.6 513.02,54.6 C512.219996,54.6 511.543336,54.7799982 510.99,55.14 C510.436664,55.5000018 510.16,56.01333 510.16,56.68 C510.16,57.1333356 510.296665,57.5033319 510.57,57.79 C510.843335,58.0766681 511.256664,58.3233323 511.81,58.53 C512.363336,58.7366677 513.199994,58.9866652 514.32,59.28 C515.840008,59.680002 516.916664,60.1699971 517.55,60.75 C518.183336,61.3300029 518.5,62.119995 518.5,63.12 C518.5,63.920004 518.276669,64.6266636 517.83,65.24 C517.383331,65.8533364 516.753337,66.3333316 515.94,66.68 C515.126663,67.0266684 514.186672,67.2 513.12,67.2 C512.133328,67.2 511.233337,67.0133352 510.42,66.64 C509.606663,66.2666648 508.966669,65.7900029 508.5,65.21 C508.033331,64.6299971 507.786667,64.0533362 507.76,63.48 C507.76,63.3599994 507.803333,63.2566671 507.89,63.17 C507.976667,63.0833329 508.079999,63.04 508.2,63.04 L509.02,63.04 C509.166667,63.04 509.286666,63.0699997 509.38,63.13 C509.473334,63.1900003 509.56,63.3066658 509.64,63.48 C509.853334,63.9600024 510.243331,64.399998 510.81,64.8 C511.376669,65.200002 512.146662,65.4 513.12,65.4 C514.093338,65.4 514.916663,65.1900021 515.59,64.77 C516.263337,64.3499979 516.6,63.8000034 516.6,63.12 C516.6,62.6799978 516.423335,62.3100015 516.07,62.01 C515.716665,61.7099985 515.233336,61.4566677 514.62,61.25 C514.006664,61.0433323 513.106673,60.7866682 511.92,60.48 C510.62666,60.146665 509.693336,59.6633365 509.12,59.03 C508.546664,58.3966635 508.26,57.613338 508.26,56.68 C508.26,55.9866632 508.439998,55.3466696 508.8,54.76 C509.160002,54.1733304 509.699996,53.7000018 510.42,53.34 C511.140004,52.9799982 512.006662,52.8 513.02,52.8 C514.033338,52.8 514.919996,52.9966647 515.68,53.39 C516.440004,53.7833353 517.026665,54.2666638 517.44,54.84 C517.853335,55.4133362 518.073333,55.9399976 518.1,56.42 C518.113333,56.5400006 518.073334,56.6433329 517.98,56.73 L517.98,56.73 Z M528.34,57.76 C529.166671,58.6666712 529.58,59.8999922 529.58,61.46 L529.58,62 C529.58,62.1466674 529.526667,62.2733328 529.42,62.38 C529.313333,62.4866672 529.186667,62.54 529.04,62.54 L522.16,62.54 L522.16,62.66 C522.186667,63.5400044 522.456664,64.2299975 522.97,64.73 C523.483336,65.2300025 524.146663,65.48 524.96,65.48 C525.62667,65.48 526.143332,65.3933342 526.51,65.22 C526.876669,65.0466658 527.206665,64.8000016 527.5,64.48 C527.606667,64.3733328 527.703333,64.3000002 527.79,64.26 C527.876667,64.2199998 527.993333,64.2 528.14,64.2 L528.74,64.2 C528.900001,64.2 529.033333,64.2533328 529.14,64.36 C529.246667,64.4666672 529.293333,64.5933326 529.28,64.74 C529.226666,65.1000018 529.030002,65.4699981 528.69,65.85 C528.349998,66.2300019 527.863337,66.5499987 527.23,66.81 C526.596663,67.0700013 525.840004,67.2 524.96,67.2 C524.106662,67.2 523.34667,67.0033353 522.68,66.61 C522.01333,66.2166647 521.483335,65.6733368 521.09,64.98 C520.696665,64.2866632 520.46,63.506671 520.38,62.64 C520.353333,62.239998 520.34,61.9333344 520.34,61.72 C520.34,61.5066656 520.353333,61.200002 520.38,60.8 C520.46,59.9733292 520.696665,59.22667 521.09,58.56 C521.483335,57.89333 522.009997,57.3666686 522.67,56.98 C523.330003,56.5933314 524.093329,56.4 524.96,56.4 C526.386674,56.4 527.513329,56.8533288 528.34,57.76 L528.34,57.76 Z M527.78,60.86 L527.78,60.8 C527.78,59.9866626 527.523336,59.3366691 527.01,58.85 C526.496664,58.3633309 525.813338,58.12 524.96,58.12 C524.186663,58.12 523.530003,58.3666642 522.99,58.86 C522.449997,59.3533358 522.173333,59.999996 522.16,60.8 L522.16,60.86 L527.78,60.86 Z M534.99,64.82 C535.223334,65.1266682 535.666663,65.28 536.32,65.28 L537.38,65.28 C537.526667,65.28 537.653333,65.3333328 537.76,65.44 C537.866667,65.5466672 537.92,65.6733326 537.92,65.82 L537.92,66.46 C537.92,66.6066674 537.866667,66.7333328 537.76,66.84 C537.653333,66.9466672 537.526667,67 537.38,67 L536.12,67 C534.986661,67 534.153336,66.7033363 533.62,66.11 C533.086664,65.5166637 532.82,64.6466724 532.82,63.5 L532.82,58.32 L531.34,58.32 C531.193333,58.32 531.066667,58.2666672 530.96,58.16 C530.853333,58.0533328 530.8,57.9266674 530.8,57.78 L530.8,57.14 C530.8,56.9933326 530.853333,56.8666672 530.96,56.76 C531.066667,56.6533328 531.193333,56.6 531.34,56.6 L532.82,56.6 L532.82,53.34 C532.82,53.1933326 532.873333,53.0666672 532.98,52.96 C533.086667,52.8533328 533.213333,52.8 533.36,52.8 L534.1,52.8 C534.246667,52.8 534.373333,52.8533328 534.48,52.96 C534.586667,53.0666672 534.64,53.1933326 534.64,53.34 L534.64,56.6 L537.18,56.6 C537.326667,56.6 537.453333,56.6533328 537.56,56.76 C537.666667,56.8666672 537.72,56.9933326 537.72,57.14 L537.72,57.78 C537.72,57.9266674 537.666667,58.0533328 537.56,58.16 C537.453333,58.2666672 537.326667,58.32 537.18,58.32 L534.64,58.32 L534.64,63.5 C534.64,64.0733362 534.756666,64.5133318 534.99,64.82 L534.99,64.82 Z M554.08,65.36 C554.186667,65.4666672 554.24,65.5933326 554.24,65.74 L554.24,66.46 C554.24,66.6066674 554.186667,66.7333328 554.08,66.84 C553.973333,66.9466672 553.846667,67 553.7,67 L545.56,67 C545.413333,67 545.286667,66.9466672 545.18,66.84 C545.073333,66.7333328 545.02,66.6066674 545.02,66.46 L545.02,53.54 C545.02,53.3933326 545.073333,53.2666672 545.18,53.16 C545.286667,53.0533328 545.413333,53 545.56,53 L546.38,53 C546.526667,53 546.653333,53.0533328 546.76,53.16 C546.866667,53.2666672 546.92,53.3933326 546.92,53.54 L546.92,65.2 L553.7,65.2 C553.846667,65.2 553.973333,65.2533328 554.08,65.36 L554.08,65.36 Z M564.98,61.82 C564.98,62.1400016 564.966667,62.4466652 564.94,62.74 C564.819999,64.1000068 564.350004,65.1833293 563.53,65.99 C562.709996,66.7966707 561.600007,67.2 560.2,67.2 C558.799993,67.2 557.690004,66.7966707 556.87,65.99 C556.049996,65.1833293 555.580001,64.1000068 555.46,62.74 C555.446667,62.5933326 555.44,62.286669 555.44,61.82 C555.44,61.3266642 555.446667,61.0066674 555.46,60.86 C555.566667,59.4999932 556.033329,58.4166707 556.86,57.61 C557.686671,56.8033293 558.799993,56.4 560.2,56.4 C561.600007,56.4 562.713329,56.8033293 563.54,57.61 C564.366671,58.4166707 564.833333,59.4999932 564.94,60.86 C564.966667,61.1533348 564.98,61.4733316 564.98,61.82 L564.98,61.82 Z M562.27,58.9 C561.783331,58.3799974 561.093338,58.12 560.2,58.12 C559.306662,58.12 558.616669,58.3799974 558.13,58.9 C557.643331,59.4200026 557.36,60.1066624 557.28,60.96 C557.266667,61.1200008 557.26,61.4066646 557.26,61.82 C557.26,62.220002 557.266667,62.4933326 557.28,62.64 C557.36,63.4933376 557.643331,64.1799974 558.13,64.7 C558.616669,65.2200026 559.306662,65.48 560.2,65.48 C561.093338,65.48 561.783331,65.2200026 562.27,64.7 C562.756669,64.1799974 563.04,63.4933376 563.12,62.64 C563.146667,62.3466652 563.16,62.0733346 563.16,61.82 C563.16,61.5666654 563.146667,61.2800016 563.12,60.96 C563.04,60.1066624 562.756669,59.4200026 562.27,58.9 L562.27,58.9 Z M574.38,63.92 C574.473334,63.719999 574.566666,63.5800004 574.66,63.5 C574.753334,63.4199996 574.879999,63.38 575.04,63.38 L575.64,63.38 C575.786667,63.38 575.913333,63.4299995 576.02,63.53 C576.126667,63.6300005 576.18,63.746666 576.18,63.88 C576.18,64.3333356 576.000002,64.8199974 575.64,65.34 C575.279998,65.8600026 574.760003,66.2999982 574.08,66.66 C573.399997,67.0200018 572.600005,67.2 571.68,67.2 C570.733329,67.2 569.913337,67.000002 569.22,66.6 C568.526663,66.199998 567.993335,65.6500035 567.62,64.95 C567.246665,64.2499965 567.04,63.466671 567,62.6 C566.986667,62.4399992 566.98,62.1333356 566.98,61.68 C566.98,61.3599984 566.986667,61.133334 567,61 C567.120001,59.6399932 567.579996,58.5333376 568.38,57.68 C569.180004,56.8266624 570.279993,56.4 571.68,56.4 C572.600005,56.4 573.396663,56.5766649 574.07,56.93 C574.743337,57.2833351 575.256665,57.7166641 575.61,58.23 C575.963335,58.7433359 576.153333,59.2266644 576.18,59.68 C576.193333,59.8266674 576.143334,59.9533328 576.03,60.06 C575.916666,60.1666672 575.786667,60.22 575.64,60.22 L575.04,60.22 C574.879999,60.22 574.753334,60.1800004 574.66,60.1 C574.566666,60.0199996 574.473334,59.880001 574.38,59.68 C573.913331,58.6399948 573.01334,58.12 571.68,58.12 C570.946663,58.12 570.306669,58.3666642 569.76,58.86 C569.213331,59.3533358 568.9,60.099995 568.82,61.1 C568.806667,61.2466674 568.8,61.486665 568.8,61.82 C568.8,62.1266682 568.806667,62.3533326 568.82,62.5 C568.913334,63.500005 569.229997,64.2466642 569.77,64.74 C570.310003,65.2333358 570.946663,65.48 571.68,65.48 C573.01334,65.48 573.913331,64.9600052 574.38,63.92 L574.38,63.92 Z M584.76,60.42 L584.76,60.16 C584.76,59.5066634 584.543336,59.0033351 584.11,58.65 C583.676665,58.2966649 583.113337,58.12 582.42,58.12 C581.886664,58.12 581.470001,58.2099991 581.17,58.39 C580.869999,58.5700009 580.586668,58.8399982 580.32,59.2 C580.24,59.3066672 580.153334,59.3799998 580.06,59.42 C579.966666,59.4600002 579.840001,59.48 579.68,59.48 L579.08,59.48 C578.933333,59.48 578.803334,59.4266672 578.69,59.32 C578.576666,59.2133328 578.526667,59.0866674 578.54,58.94 C578.58,58.539998 578.776665,58.1433353 579.13,57.75 C579.483335,57.3566647 579.95333,57.0333346 580.54,56.78 C581.12667,56.5266654 581.75333,56.4 582.42,56.4 C583.660006,56.4 584.66333,56.7466632 585.43,57.44 C586.19667,58.1333368 586.58,59.1066604 586.58,60.36 L586.58,66.46 C586.58,66.6066674 586.526667,66.7333328 586.42,66.84 C586.313333,66.9466672 586.186667,67 586.04,67 L585.3,67 C585.153333,67 585.026667,66.9466672 584.92,66.84 C584.813333,66.7333328 584.76,66.6066674 584.76,66.46 L584.76,65.64 C584.546666,66.1200024 584.093337,66.4999986 583.4,66.78 C582.706663,67.0600014 582.013337,67.2 581.32,67.2 C580.639997,67.2 580.033336,67.0766679 579.5,66.83 C578.966664,66.5833321 578.556668,66.2466688 578.27,65.82 C577.983332,65.3933312 577.84,64.913336 577.84,64.38 C577.84,63.379995 578.21333,62.5966695 578.96,62.03 C579.70667,61.4633305 580.699994,61.080001 581.94,60.88 L584.76,60.42 Z M584.76,62.02 L582.4,62.4 C581.533329,62.533334 580.860002,62.7499985 580.38,63.05 C579.899998,63.3500015 579.66,63.7266644 579.66,64.18 C579.66,64.513335 579.813332,64.813332 580.12,65.08 C580.426668,65.346668 580.89333,65.48 581.52,65.48 C582.480005,65.48 583.259997,65.2066694 583.86,64.66 C584.460003,64.1133306 584.76,63.4000044 584.76,62.52 L584.76,62.02 Z M592.45,64.82 C592.683335,65.1266682 593.126663,65.28 593.78,65.28 L594.84,65.28 C594.986667,65.28 595.113333,65.3333328 595.22,65.44 C595.326667,65.5466672 595.38,65.6733326 595.38,65.82 L595.38,66.46 C595.38,66.6066674 595.326667,66.7333328 595.22,66.84 C595.113333,66.9466672 594.986667,67 594.84,67 L593.58,67 C592.446661,67 591.613336,66.7033363 591.08,66.11 C590.546664,65.5166637 590.28,64.6466724 590.28,63.5 L590.28,58.32 L588.8,58.32 C588.653333,58.32 588.526667,58.2666672 588.42,58.16 C588.313333,58.0533328 588.26,57.9266674 588.26,57.78 L588.26,57.14 C588.26,56.9933326 588.313333,56.8666672 588.42,56.76 C588.526667,56.6533328 588.653333,56.6 588.8,56.6 L590.28,56.6 L590.28,53.34 C590.28,53.1933326 590.333333,53.0666672 590.44,52.96 C590.546667,52.8533328 590.673333,52.8 590.82,52.8 L591.56,52.8 C591.706667,52.8 591.833333,52.8533328 591.94,52.96 C592.046667,53.0666672 592.1,53.1933326 592.1,53.34 L592.1,56.6 L594.64,56.6 C594.786667,56.6 594.913333,56.6533328 595.02,56.76 C595.126667,56.8666672 595.18,56.9933326 595.18,57.14 L595.18,57.78 C595.18,57.9266674 595.126667,58.0533328 595.02,58.16 C594.913333,58.2666672 594.786667,58.32 594.64,58.32 L592.1,58.32 L592.1,63.5 C592.1,64.0733362 592.216665,64.5133318 592.45,64.82 L592.45,64.82 Z M599.24,54.86 C599.133333,54.9666672 599.006667,55.02 598.86,55.02 L597.72,55.02 C597.573333,55.02 597.446667,54.9666672 597.34,54.86 C597.233333,54.7533328 597.18,54.6266674 597.18,54.48 L597.18,53.34 C597.18,53.1933326 597.233333,53.0666672 597.34,52.96 C597.446667,52.8533328 597.573333,52.8 597.72,52.8 L598.86,52.8 C599.006667,52.8 599.133333,52.8533328 599.24,52.96 C599.346667,53.0666672 599.4,53.1933326 599.4,53.34 L599.4,54.48 C599.4,54.6266674 599.346667,54.7533328 599.24,54.86 L599.24,54.86 Z M599.04,66.84 C598.933333,66.9466672 598.806667,67 598.66,67 L597.92,67 C597.773333,67 597.646667,66.9466672 597.54,66.84 C597.433333,66.7333328 597.38,66.6066674 597.38,66.46 L597.38,57.14 C597.38,56.9933326 597.433333,56.8666672 597.54,56.76 C597.646667,56.6533328 597.773333,56.6 597.92,56.6 L598.66,56.6 C598.806667,56.6 598.933333,56.6533328 599.04,56.76 C599.146667,56.8666672 599.2,56.9933326 599.2,57.14 L599.2,66.46 C599.2,66.6066674 599.146667,66.7333328 599.04,66.84 L599.04,66.84 Z M611.24,61.82 C611.24,62.1400016 611.226667,62.4466652 611.2,62.74 C611.079999,64.1000068 610.610004,65.1833293 609.79,65.99 C608.969996,66.7966707 607.860007,67.2 606.46,67.2 C605.059993,67.2 603.950004,66.7966707 603.13,65.99 C602.309996,65.1833293 601.840001,64.1000068 601.72,62.74 C601.706667,62.5933326 601.7,62.286669 601.7,61.82 C601.7,61.3266642 601.706667,61.0066674 601.72,60.86 C601.826667,59.4999932 602.293329,58.4166707 603.12,57.61 C603.946671,56.8033293 605.059993,56.4 606.46,56.4 C607.860007,56.4 608.973329,56.8033293 609.8,57.61 C610.626671,58.4166707 611.093333,59.4999932 611.2,60.86 C611.226667,61.1533348 611.24,61.4733316 611.24,61.82 L611.24,61.82 Z M608.53,58.9 C608.043331,58.3799974 607.353338,58.12 606.46,58.12 C605.566662,58.12 604.876669,58.3799974 604.39,58.9 C603.903331,59.4200026 603.62,60.1066624 603.54,60.96 C603.526667,61.1200008 603.52,61.4066646 603.52,61.82 C603.52,62.220002 603.526667,62.4933326 603.54,62.64 C603.62,63.4933376 603.903331,64.1799974 604.39,64.7 C604.876669,65.2200026 605.566662,65.48 606.46,65.48 C607.353338,65.48 608.043331,65.2200026 608.53,64.7 C609.016669,64.1799974 609.3,63.4933376 609.38,62.64 C609.406667,62.3466652 609.42,62.0733346 609.42,61.82 C609.42,61.5666654 609.406667,61.2800016 609.38,60.96 C609.3,60.1066624 609.016669,59.4200026 608.53,58.9 L608.53,58.9 Z M622.82,66.84 C622.713333,66.9466672 622.586667,67 622.44,67 L621.7,67 C621.553333,67 621.426667,66.9466672 621.32,66.84 C621.213333,66.7333328 621.16,66.6066674 621.16,66.46 L621.16,61.18 C621.16,60.179995 620.913336,59.4200026 620.42,58.9 C619.926664,58.3799974 619.240004,58.12 618.36,58.12 C617.493329,58.12 616.810002,58.3799974 616.31,58.9 C615.809998,59.4200026 615.56,60.179995 615.56,61.18 L615.56,66.46 C615.56,66.6066674 615.506667,66.7333328 615.4,66.84 C615.293333,66.9466672 615.166667,67 615.02,67 L614.28,67 C614.133333,67 614.006667,66.9466672 613.9,66.84 C613.793333,66.7333328 613.74,66.6066674 613.74,66.46 L613.74,57.14 C613.74,56.9933326 613.793333,56.8666672 613.9,56.76 C614.006667,56.6533328 614.133333,56.6 614.28,56.6 L615.02,56.6 C615.166667,56.6 615.293333,56.6533328 615.4,56.76 C615.506667,56.8666672 615.56,56.9933326 615.56,57.14 L615.56,57.76 C615.853335,57.3733314 616.256664,57.0500013 616.77,56.79 C617.283336,56.5299987 617.91333,56.4 618.66,56.4 C619.500004,56.4 620.246663,56.5799982 620.9,56.94 C621.553337,57.3000018 622.063332,57.8166633 622.43,58.49 C622.796669,59.1633367 622.98,59.9599954 622.98,60.88 L622.98,66.46 C622.98,66.6066674 622.926667,66.7333328 622.82,66.84 L622.82,66.84 Z" id="Set-Location" fill="#EA8F97"></path>
                    <path d="M685.98,56.73 C685.886666,56.8166671 685.780001,56.86 685.66,56.86 L684.84,56.86 C684.679999,56.86 684.56,56.8300003 684.48,56.77 C684.4,56.7099997 684.313334,56.5933342 684.22,56.42 C684.006666,56.0066646 683.636669,55.600002 683.11,55.2 C682.583331,54.799998 681.886671,54.6 681.02,54.6 C680.219996,54.6 679.543336,54.7799982 678.99,55.14 C678.436664,55.5000018 678.16,56.01333 678.16,56.68 C678.16,57.1333356 678.296665,57.5033319 678.57,57.79 C678.843335,58.0766681 679.256664,58.3233323 679.81,58.53 C680.363336,58.7366677 681.199994,58.9866652 682.32,59.28 C683.840008,59.680002 684.916664,60.1699971 685.55,60.75 C686.183336,61.3300029 686.5,62.119995 686.5,63.12 C686.5,63.920004 686.276669,64.6266636 685.83,65.24 C685.383331,65.8533364 684.753337,66.3333316 683.94,66.68 C683.126663,67.0266684 682.186672,67.2 681.12,67.2 C680.133328,67.2 679.233337,67.0133352 678.42,66.64 C677.606663,66.2666648 676.966669,65.7900029 676.5,65.21 C676.033331,64.6299971 675.786667,64.0533362 675.76,63.48 C675.76,63.3599994 675.803333,63.2566671 675.89,63.17 C675.976667,63.0833329 676.079999,63.04 676.2,63.04 L677.02,63.04 C677.166667,63.04 677.286666,63.0699997 677.38,63.13 C677.473334,63.1900003 677.56,63.3066658 677.64,63.48 C677.853334,63.9600024 678.24333,64.399998 678.81,64.8 C679.37667,65.200002 680.146662,65.4 681.12,65.4 C682.093338,65.4 682.916663,65.1900021 683.59,64.77 C684.263337,64.3499979 684.6,63.8000034 684.6,63.12 C684.6,62.6799978 684.423335,62.3100015 684.07,62.01 C683.716665,61.7099985 683.233336,61.4566677 682.62,61.25 C682.006664,61.0433323 681.106673,60.7866682 679.92,60.48 C678.62666,60.146665 677.693336,59.6633365 677.12,59.03 C676.546664,58.3966635 676.26,57.613338 676.26,56.68 C676.26,55.9866632 676.439998,55.3466696 676.8,54.76 C677.160002,54.1733304 677.699996,53.7000018 678.42,53.34 C679.140004,52.9799982 680.006662,52.8 681.02,52.8 C682.033338,52.8 682.919996,52.9966647 683.68,53.39 C684.440004,53.7833353 685.026665,54.2666638 685.44,54.84 C685.853335,55.4133362 686.073333,55.9399976 686.1,56.42 C686.113333,56.5400006 686.073334,56.6433329 685.98,56.73 L685.98,56.73 Z M696.34,57.76 C697.166671,58.6666712 697.58,59.8999922 697.58,61.46 L697.58,62 C697.58,62.1466674 697.526667,62.2733328 697.42,62.38 C697.313333,62.4866672 697.186667,62.54 697.04,62.54 L690.16,62.54 L690.16,62.66 C690.186667,63.5400044 690.456664,64.2299975 690.97,64.73 C691.483336,65.2300025 692.146663,65.48 692.96,65.48 C693.62667,65.48 694.143332,65.3933342 694.51,65.22 C694.876669,65.0466658 695.206665,64.8000016 695.5,64.48 C695.606667,64.3733328 695.703333,64.3000002 695.79,64.26 C695.876667,64.2199998 695.993333,64.2 696.14,64.2 L696.74,64.2 C696.900001,64.2 697.033333,64.2533328 697.14,64.36 C697.246667,64.4666672 697.293333,64.5933326 697.28,64.74 C697.226666,65.1000018 697.030002,65.4699981 696.69,65.85 C696.349998,66.2300019 695.863337,66.5499987 695.23,66.81 C694.596663,67.0700013 693.840004,67.2 692.96,67.2 C692.106662,67.2 691.34667,67.0033353 690.68,66.61 C690.01333,66.2166647 689.483335,65.6733368 689.09,64.98 C688.696665,64.2866632 688.46,63.506671 688.38,62.64 C688.353333,62.239998 688.34,61.9333344 688.34,61.72 C688.34,61.5066656 688.353333,61.200002 688.38,60.8 C688.46,59.9733292 688.696665,59.22667 689.09,58.56 C689.483335,57.89333 690.009997,57.3666686 690.67,56.98 C691.330003,56.5933314 692.093329,56.4 692.96,56.4 C694.386674,56.4 695.513329,56.8533288 696.34,57.76 L696.34,57.76 Z M695.78,60.86 L695.78,60.8 C695.78,59.9866626 695.523336,59.3366691 695.01,58.85 C694.496664,58.3633309 693.813338,58.12 692.96,58.12 C692.186663,58.12 691.530003,58.3666642 690.99,58.86 C690.449997,59.3533358 690.173333,59.999996 690.16,60.8 L690.16,60.86 L695.78,60.86 Z M702.99,64.82 C703.223334,65.1266682 703.666663,65.28 704.32,65.28 L705.38,65.28 C705.526667,65.28 705.653333,65.3333328 705.76,65.44 C705.866667,65.5466672 705.92,65.6733326 705.92,65.82 L705.92,66.46 C705.92,66.6066674 705.866667,66.7333328 705.76,66.84 C705.653333,66.9466672 705.526667,67 705.38,67 L704.12,67 C702.986661,67 702.153336,66.7033363 701.62,66.11 C701.086664,65.5166637 700.82,64.6466724 700.82,63.5 L700.82,58.32 L699.34,58.32 C699.193333,58.32 699.066667,58.2666672 698.96,58.16 C698.853333,58.0533328 698.8,57.9266674 698.8,57.78 L698.8,57.14 C698.8,56.9933326 698.853333,56.8666672 698.96,56.76 C699.066667,56.6533328 699.193333,56.6 699.34,56.6 L700.82,56.6 L700.82,53.34 C700.82,53.1933326 700.873333,53.0666672 700.98,52.96 C701.086667,52.8533328 701.213333,52.8 701.36,52.8 L702.1,52.8 C702.246667,52.8 702.373333,52.8533328 702.48,52.96 C702.586667,53.0666672 702.64,53.1933326 702.64,53.34 L702.64,56.6 L705.18,56.6 C705.326667,56.6 705.453333,56.6533328 705.56,56.76 C705.666667,56.8666672 705.72,56.9933326 705.72,57.14 L705.72,57.78 C705.72,57.9266674 705.666667,58.0533328 705.56,58.16 C705.453333,58.2666672 705.326667,58.32 705.18,58.32 L702.64,58.32 L702.64,63.5 C702.64,64.0733362 702.756666,64.5133318 702.99,64.82 L702.99,64.82 Z M722.28,56.73 C722.186666,56.8166671 722.080001,56.86 721.96,56.86 L721.14,56.86 C720.979999,56.86 720.86,56.8300003 720.78,56.77 C720.7,56.7099997 720.613334,56.5933342 720.52,56.42 C720.306666,56.0066646 719.936669,55.600002 719.41,55.2 C718.883331,54.799998 718.186671,54.6 717.32,54.6 C716.519996,54.6 715.843336,54.7799982 715.29,55.14 C714.736664,55.5000018 714.46,56.01333 714.46,56.68 C714.46,57.1333356 714.596665,57.5033319 714.87,57.79 C715.143335,58.0766681 715.556664,58.3233323 716.11,58.53 C716.663336,58.7366677 717.499994,58.9866652 718.62,59.28 C720.140008,59.680002 721.216663,60.1699971 721.85,60.75 C722.483336,61.3300029 722.8,62.119995 722.8,63.12 C722.8,63.920004 722.576669,64.6266636 722.13,65.24 C721.683331,65.8533364 721.053337,66.3333316 720.24,66.68 C719.426663,67.0266684 718.486672,67.2 717.42,67.2 C716.433328,67.2 715.533337,67.0133352 714.72,66.64 C713.906663,66.2666648 713.266669,65.7900029 712.8,65.21 C712.333331,64.6299971 712.086667,64.0533362 712.06,63.48 C712.06,63.3599994 712.103333,63.2566671 712.19,63.17 C712.276667,63.0833329 712.379999,63.04 712.5,63.04 L713.32,63.04 C713.466667,63.04 713.586666,63.0699997 713.68,63.13 C713.773334,63.1900003 713.86,63.3066658 713.94,63.48 C714.153334,63.9600024 714.543331,64.399998 715.11,64.8 C715.67667,65.200002 716.446662,65.4 717.42,65.4 C718.393338,65.4 719.216663,65.1900021 719.89,64.77 C720.563337,64.3499979 720.9,63.8000034 720.9,63.12 C720.9,62.6799978 720.723335,62.3100015 720.37,62.01 C720.016665,61.7099985 719.533336,61.4566677 718.92,61.25 C718.306664,61.0433323 717.406673,60.7866682 716.22,60.48 C714.92666,60.146665 713.993336,59.6633365 713.42,59.03 C712.846664,58.3966635 712.56,57.613338 712.56,56.68 C712.56,55.9866632 712.739998,55.3466696 713.1,54.76 C713.460002,54.1733304 713.999996,53.7000018 714.72,53.34 C715.440004,52.9799982 716.306662,52.8 717.32,52.8 C718.333338,52.8 719.219996,52.9966647 719.98,53.39 C720.740004,53.7833353 721.326665,54.2666638 721.74,54.84 C722.153335,55.4133362 722.373333,55.9399976 722.4,56.42 C722.413333,56.5400006 722.373334,56.6433329 722.28,56.73 L722.28,56.73 Z M728.23,64.82 C728.463334,65.1266682 728.906663,65.28 729.56,65.28 L730.62,65.28 C730.766667,65.28 730.893333,65.3333328 731,65.44 C731.106667,65.5466672 731.16,65.6733326 731.16,65.82 L731.16,66.46 C731.16,66.6066674 731.106667,66.7333328 731,66.84 C730.893333,66.9466672 730.766667,67 730.62,67 L729.36,67 C728.226661,67 727.393336,66.7033363 726.86,66.11 C726.326664,65.5166637 726.06,64.6466724 726.06,63.5 L726.06,58.32 L724.58,58.32 C724.433333,58.32 724.306667,58.2666672 724.2,58.16 C724.093333,58.0533328 724.04,57.9266674 724.04,57.78 L724.04,57.14 C724.04,56.9933326 724.093333,56.8666672 724.2,56.76 C724.306667,56.6533328 724.433333,56.6 724.58,56.6 L726.06,56.6 L726.06,53.34 C726.06,53.1933326 726.113333,53.0666672 726.22,52.96 C726.326667,52.8533328 726.453333,52.8 726.6,52.8 L727.34,52.8 C727.486667,52.8 727.613333,52.8533328 727.72,52.96 C727.826667,53.0666672 727.88,53.1933326 727.88,53.34 L727.88,56.6 L730.42,56.6 C730.566667,56.6 730.693333,56.6533328 730.8,56.76 C730.906667,56.8666672 730.96,56.9933326 730.96,57.14 L730.96,57.78 C730.96,57.9266674 730.906667,58.0533328 730.8,58.16 C730.693333,58.2666672 730.566667,58.32 730.42,58.32 L727.88,58.32 L727.88,63.5 C727.88,64.0733362 727.996666,64.5133318 728.23,64.82 L728.23,64.82 Z M739.34,60.42 L739.34,60.16 C739.34,59.5066634 739.123335,59.0033351 738.69,58.65 C738.256665,58.2966649 737.693337,58.12 737,58.12 C736.466664,58.12 736.050002,58.2099991 735.75,58.39 C735.449998,58.5700009 735.166668,58.8399982 734.9,59.2 C734.82,59.3066672 734.733334,59.3799998 734.64,59.42 C734.546666,59.4600002 734.420001,59.48 734.26,59.48 L733.66,59.48 C733.513333,59.48 733.383334,59.4266672 733.27,59.32 C733.156666,59.2133328 733.106667,59.0866674 733.12,58.94 C733.16,58.539998 733.356665,58.1433353 733.71,57.75 C734.063335,57.3566647 734.53333,57.0333346 735.12,56.78 C735.70667,56.5266654 736.33333,56.4 737,56.4 C738.240006,56.4 739.243329,56.7466632 740.01,57.44 C740.776671,58.1333368 741.16,59.1066604 741.16,60.36 L741.16,66.46 C741.16,66.6066674 741.106667,66.7333328 741,66.84 C740.893333,66.9466672 740.766667,67 740.62,67 L739.88,67 C739.733333,67 739.606667,66.9466672 739.5,66.84 C739.393333,66.7333328 739.34,66.6066674 739.34,66.46 L739.34,65.64 C739.126666,66.1200024 738.673337,66.4999986 737.98,66.78 C737.286663,67.0600014 736.593337,67.2 735.9,67.2 C735.219997,67.2 734.613336,67.0766679 734.08,66.83 C733.546664,66.5833321 733.136668,66.2466688 732.85,65.82 C732.563332,65.3933312 732.42,64.913336 732.42,64.38 C732.42,63.379995 732.79333,62.5966695 733.54,62.03 C734.28667,61.4633305 735.279994,61.080001 736.52,60.88 L739.34,60.42 Z M739.34,62.02 L736.98,62.4 C736.113329,62.533334 735.440002,62.7499985 734.96,63.05 C734.479998,63.3500015 734.24,63.7266644 734.24,64.18 C734.24,64.513335 734.393332,64.813332 734.7,65.08 C735.006668,65.346668 735.47333,65.48 736.1,65.48 C737.060005,65.48 737.839997,65.2066694 738.44,64.66 C739.040003,64.1133306 739.34,63.4000044 739.34,62.52 L739.34,62.02 Z M749.74,56.76 C749.846667,56.8666672 749.9,56.9933326 749.9,57.14 L749.9,57.78 C749.9,57.9266674 749.846667,58.0533328 749.74,58.16 C749.633333,58.2666672 749.506667,58.32 749.36,58.32 L748.2,58.32 C747.45333,58.32 746.883335,58.5166647 746.49,58.91 C746.096665,59.3033353 745.9,59.8733296 745.9,60.62 L745.9,66.46 C745.9,66.6066674 745.846667,66.7333328 745.74,66.84 C745.633333,66.9466672 745.506667,67 745.36,67 L744.62,67 C744.473333,67 744.346667,66.9466672 744.24,66.84 C744.133333,66.7333328 744.08,66.6066674 744.08,66.46 L744.08,57.14 C744.08,56.9933326 744.133333,56.8666672 744.24,56.76 C744.346667,56.6533328 744.473333,56.6 744.62,56.6 L745.36,56.6 C745.506667,56.6 745.633333,56.6533328 745.74,56.76 C745.846667,56.8666672 745.9,56.9933326 745.9,57.14 L745.9,57.76 C746.166668,57.359998 746.486665,57.0666676 746.86,56.88 C747.233335,56.6933324 747.719997,56.6 748.32,56.6 L749.36,56.6 C749.506667,56.6 749.633333,56.6533328 749.74,56.76 L749.74,56.76 Z M754.71,64.82 C754.943334,65.1266682 755.386663,65.28 756.04,65.28 L757.1,65.28 C757.246667,65.28 757.373333,65.3333328 757.48,65.44 C757.586667,65.5466672 757.64,65.6733326 757.64,65.82 L757.64,66.46 C757.64,66.6066674 757.586667,66.7333328 757.48,66.84 C757.373333,66.9466672 757.246667,67 757.1,67 L755.84,67 C754.706661,67 753.873336,66.7033363 753.34,66.11 C752.806664,65.5166637 752.54,64.6466724 752.54,63.5 L752.54,58.32 L751.06,58.32 C750.913333,58.32 750.786667,58.2666672 750.68,58.16 C750.573333,58.0533328 750.52,57.9266674 750.52,57.78 L750.52,57.14 C750.52,56.9933326 750.573333,56.8666672 750.68,56.76 C750.786667,56.6533328 750.913333,56.6 751.06,56.6 L752.54,56.6 L752.54,53.34 C752.54,53.1933326 752.593333,53.0666672 752.7,52.96 C752.806667,52.8533328 752.933333,52.8 753.08,52.8 L753.82,52.8 C753.966667,52.8 754.093333,52.8533328 754.2,52.96 C754.306667,53.0666672 754.36,53.1933326 754.36,53.34 L754.36,56.6 L756.9,56.6 C757.046667,56.6 757.173333,56.6533328 757.28,56.76 C757.386667,56.8666672 757.44,56.9933326 757.44,57.14 L757.44,57.78 C757.44,57.9266674 757.386667,58.0533328 757.28,58.16 C757.173333,58.2666672 757.046667,58.32 756.9,58.32 L754.36,58.32 L754.36,63.5 C754.36,64.0733362 754.476665,64.5133318 754.71,64.82 L754.71,64.82 Z M774.86,64.47 C774.379998,65.2900041 773.720004,65.9166645 772.88,66.35 C772.039996,66.7833355 771.073339,67 769.98,67 L765.28,67 C765.133333,67 765.006667,66.9466672 764.9,66.84 C764.793333,66.7333328 764.74,66.6066674 764.74,66.46 L764.74,53.54 C764.74,53.3933326 764.793333,53.2666672 764.9,53.16 C765.006667,53.0533328 765.133333,53 765.28,53 L769.86,53 C770.966672,53 771.949996,53.2166645 772.81,53.65 C773.670004,54.0833355 774.346664,54.7099959 774.84,55.53 C775.333336,56.3500041 775.586667,57.3133278 775.6,58.42 C775.613333,58.820002 775.62,59.3466634 775.62,60 C775.62,60.6533366 775.613333,61.179998 775.6,61.58 C775.586667,62.6866722 775.340002,63.6499959 774.86,64.47 L774.86,64.47 Z M766.64,54.8 L766.64,65.2 L769.88,65.2 C771.21334,65.2 772.176664,64.8533368 772.77,64.16 C773.363336,63.4666632 773.673333,62.5733388 773.7,61.48 C773.713333,61.079998 773.72,60.5866696 773.72,60 C773.72,59.4133304 773.713333,58.920002 773.7,58.52 C773.673333,57.4399946 773.34667,56.5500035 772.72,55.85 C772.09333,55.1499965 771.11334,54.8 769.78,54.8 L766.64,54.8 Z M784.46,60.42 L784.46,60.16 C784.46,59.5066634 784.243336,59.0033351 783.81,58.65 C783.376664,58.2966649 782.813337,58.12 782.12,58.12 C781.586664,58.12 781.170002,58.2099991 780.87,58.39 C780.569998,58.5700009 780.286668,58.8399982 780.02,59.2 C779.94,59.3066672 779.853334,59.3799998 779.76,59.42 C779.666666,59.4600002 779.540001,59.48 779.38,59.48 L778.78,59.48 C778.633333,59.48 778.503334,59.4266672 778.39,59.32 C778.276666,59.2133328 778.226667,59.0866674 778.24,58.94 C778.28,58.539998 778.476665,58.1433353 778.83,57.75 C779.183335,57.3566647 779.65333,57.0333346 780.24,56.78 C780.82667,56.5266654 781.45333,56.4 782.12,56.4 C783.360006,56.4 784.363329,56.7466632 785.13,57.44 C785.896671,58.1333368 786.28,59.1066604 786.28,60.36 L786.28,66.46 C786.28,66.6066674 786.226667,66.7333328 786.12,66.84 C786.013333,66.9466672 785.886667,67 785.74,67 L785,67 C784.853333,67 784.726667,66.9466672 784.62,66.84 C784.513333,66.7333328 784.46,66.6066674 784.46,66.46 L784.46,65.64 C784.246666,66.1200024 783.793337,66.4999986 783.1,66.78 C782.406663,67.0600014 781.713337,67.2 781.02,67.2 C780.339997,67.2 779.733336,67.0766679 779.2,66.83 C778.666664,66.5833321 778.256668,66.2466688 777.97,65.82 C777.683332,65.3933312 777.54,64.913336 777.54,64.38 C777.54,63.379995 777.91333,62.5966695 778.66,62.03 C779.40667,61.4633305 780.399994,61.080001 781.64,60.88 L784.46,60.42 Z M784.46,62.02 L782.1,62.4 C781.233329,62.533334 780.560002,62.7499985 780.08,63.05 C779.599998,63.3500015 779.36,63.7266644 779.36,64.18 C779.36,64.513335 779.513332,64.813332 779.82,65.08 C780.126668,65.346668 780.59333,65.48 781.22,65.48 C782.180005,65.48 782.959997,65.2066694 783.56,64.66 C784.160003,64.1133306 784.46,63.4000044 784.46,62.52 L784.46,62.02 Z M792.15,64.82 C792.383335,65.1266682 792.826663,65.28 793.48,65.28 L794.54,65.28 C794.686667,65.28 794.813333,65.3333328 794.92,65.44 C795.026667,65.5466672 795.08,65.6733326 795.08,65.82 L795.08,66.46 C795.08,66.6066674 795.026667,66.7333328 794.92,66.84 C794.813333,66.9466672 794.686667,67 794.54,67 L793.28,67 C792.146661,67 791.313336,66.7033363 790.78,66.11 C790.246664,65.5166637 789.98,64.6466724 789.98,63.5 L789.98,58.32 L788.5,58.32 C788.353333,58.32 788.226667,58.2666672 788.12,58.16 C788.013333,58.0533328 787.96,57.9266674 787.96,57.78 L787.96,57.14 C787.96,56.9933326 788.013333,56.8666672 788.12,56.76 C788.226667,56.6533328 788.353333,56.6 788.5,56.6 L789.98,56.6 L789.98,53.34 C789.98,53.1933326 790.033333,53.0666672 790.14,52.96 C790.246667,52.8533328 790.373333,52.8 790.52,52.8 L791.26,52.8 C791.406667,52.8 791.533333,52.8533328 791.64,52.96 C791.746667,53.0666672 791.8,53.1933326 791.8,53.34 L791.8,56.6 L794.34,56.6 C794.486667,56.6 794.613333,56.6533328 794.72,56.76 C794.826667,56.8666672 794.88,56.9933326 794.88,57.14 L794.88,57.78 C794.88,57.9266674 794.826667,58.0533328 794.72,58.16 C794.613333,58.2666672 794.486667,58.32 794.34,58.32 L791.8,58.32 L791.8,63.5 C791.8,64.0733362 791.916666,64.5133318 792.15,64.82 L792.15,64.82 Z M804.56,57.76 C805.386671,58.6666712 805.8,59.8999922 805.8,61.46 L805.8,62 C805.8,62.1466674 805.746667,62.2733328 805.64,62.38 C805.533333,62.4866672 805.406667,62.54 805.26,62.54 L798.38,62.54 L798.38,62.66 C798.406667,63.5400044 798.676664,64.2299975 799.19,64.73 C799.703336,65.2300025 800.366663,65.48 801.18,65.48 C801.84667,65.48 802.363331,65.3933342 802.73,65.22 C803.096669,65.0466658 803.426665,64.8000016 803.72,64.48 C803.826667,64.3733328 803.923333,64.3000002 804.01,64.26 C804.096667,64.2199998 804.213333,64.2 804.36,64.2 L804.96,64.2 C805.120001,64.2 805.253333,64.2533328 805.36,64.36 C805.466667,64.4666672 805.513333,64.5933326 805.5,64.74 C805.446666,65.1000018 805.250002,65.4699981 804.91,65.85 C804.569998,66.2300019 804.083336,66.5499987 803.45,66.81 C802.816664,67.0700013 802.060004,67.2 801.18,67.2 C800.326662,67.2 799.56667,67.0033353 798.9,66.61 C798.23333,66.2166647 797.703335,65.6733368 797.31,64.98 C796.916665,64.2866632 796.68,63.506671 796.6,62.64 C796.573333,62.239998 796.56,61.9333344 796.56,61.72 C796.56,61.5066656 796.573333,61.200002 796.6,60.8 C796.68,59.9733292 796.916665,59.22667 797.31,58.56 C797.703335,57.89333 798.229997,57.3666686 798.89,56.98 C799.550003,56.5933314 800.313329,56.4 801.18,56.4 C802.606674,56.4 803.733329,56.8533288 804.56,57.76 L804.56,57.76 Z M804,60.86 L804,60.8 C804,59.9866626 803.743336,59.3366691 803.23,58.85 C802.716664,58.3633309 802.033338,58.12 801.18,58.12 C800.406663,58.12 799.750003,58.3666642 799.21,58.86 C798.669997,59.3533358 798.393333,59.999996 798.38,60.8 L798.38,60.86 L804,60.86 Z" id="Set-Start-Date" fill="#EA8F97"></path>
                    <g id="Group-2" transform="translate(36.000000, 35.000000)" fill="#3FA3BA">
                        <path d="M45,48.5 C45,49.3284271 44.3284271,50 43.5,50 L1.5,50 C0.6715729,50 0,49.3284271 0,48.5 L0,1.5 C0,0.6715729 0.6715729,0 1.5,0 L43.5,0 C44.3284271,0 45,0.6715729 45,1.5 L45,48.5 L45,48.5 L45,48.5 L45,48.5 Z M3,47 L42,47 L42,3 L3,3 L3,47 L3,47 L3,47 L3,47 Z" id="Shape"></path>
                        <g id="Group" transform="translate(6.000000, 11.000000)">
                            <path d="M16.7,3.6 C23.8797017,3.6 29.7,9.42029825 29.7,16.6 C29.7,23.7797017 23.8797017,29.6 16.7,29.6 C9.52029825,29.6 3.7,23.7797017 3.7,16.6 C3.7,9.42029825 9.52029825,3.6 16.7,3.6 L16.7,3.6 L16.7,3.6 L16.7,3.6 Z M16.7,0.6 L16.7,0.6 C7.863444,0.6 0.7,7.763444 0.7,16.6 L0.7,16.6 C0.7,25.436556 7.863444,32.6 16.7,32.6 L16.7,32.6 C25.536556,32.6 32.7,25.436556 32.7,16.6 L32.7,16.6 C32.7,7.763444 25.536556,0.6 16.7,0.6 L16.7,0.6 L16.7,0.6 L16.7,0.6 L16.7,0.6 Z" id="Shape"></path>
                            <path d="M16.86,26 C11.7315593,25.9944885 7.57551149,21.8384407 7.57,16.71 C7.57,15.8815729 8.24157288,15.21 9.07,15.21 C9.89842712,15.21 10.57,15.8815729 10.57,16.71 C10.5755061,20.1815878 13.3884122,22.9944939 16.86,23 C17.6884271,23 18.36,23.6715729 18.36,24.5 C18.36,25.3284271 17.6884271,26 16.86,26 L16.86,26 L16.86,26 L16.86,26 Z" id="Shape"></path>
                            <path d="M24.65,18.26 C23.8215729,18.26 23.15,17.5884271 23.15,16.76 C23.1444939,13.2884122 20.3315878,10.4755061 16.86,10.47 C16.0315729,10.47 15.36,9.79842712 15.36,8.97 C15.36,8.14157288 16.0315729,7.47 16.86,7.47 C21.9884407,7.47551149 26.1444885,11.6315593 26.15,16.76 C26.15,17.5884271 25.4784271,18.26 24.65,18.26 L24.65,18.26 L24.65,18.26 L24.65,18.26 Z" id="Shape"></path>
                        </g>
                        <path d="M14.86,10 L8.5,10 C7.6715729,10 7,9.3284271 7,8.5 C7,7.6715729 7.6715729,7 8.5,7 L14.86,7 C15.6884271,7 16.36,7.6715729 16.36,8.5 C16.36,9.3284271 15.6884271,10 14.86,10 L14.86,10 L14.86,10 L14.86,10 Z" id="Shape"></path>
                    </g>
                </g>
            </g>
        </g>
    </g>
</svg>