<?xml version="1.0" encoding="utf-8"?>
<!-- Generator: Adobe Illustrator 20.1.0, SVG Export Plug-In . SVG Version: 6.00 Build 0)  -->
<svg version="1.1" id="Layer_1" xmlns="http://www.w3.org/2000/svg" xmlns:xlink="http://www.w3.org/1999/xlink" x="0px" y="0px"
	 viewBox="0 0 100 100" style="enable-background:new 0 0 100 100;" xml:space="preserve">
<style type="text/css">
	.st0{clip-path:url(#SVGID_2_);fill:none;stroke:#42B993;stroke-width:3;stroke-miterlimit:10;}
	.st1{clip-path:url(#SVGID_4_);}
	.st2{clip-path:url(#SVGID_6_);enable-background:new    ;}
	.st3{clip-path:url(#SVGID_8_);}
	.st4{clip-path:url(#SVGID_10_);fill:none;stroke:#42B993;stroke-width:6;stroke-miterlimit:10;}
	.st5{clip-path:url(#SVGID_12_);}
	.st6{clip-path:url(#SVGID_14_);enable-background:new    ;}
	.st7{clip-path:url(#SVGID_16_);}
	.st8{clip-path:url(#SVGID_18_);fill:none;stroke:#42B993;stroke-width:6;stroke-miterlimit:10;}
</style>
<g>
	<g>
		<defs>
			<rect id="SVGID_1_" width="100" height="100"/>
		</defs>
		<clipPath id="SVGID_2_">
			<use xlink:href="#SVGID_1_"  style="overflow:visible;"/>
		</clipPath>
		<path class="st0" d="M73.2,26.8C86,39.6,86,60.3,73.2,73.1c-6.4,6.4-14.8,9.6-23.2,9.6s-16.8-3.2-23.2-9.6
			C14,60.3,14,39.6,26.8,26.8S60.4,14.1,73.2,26.8z"/>
		<path class="st0" d="M57.4,49.6c3.5,3.5,3.5,9.2,0,12.7C55.6,64.1,53.3,65,51,65s-4.6-0.9-6.4-2.6c-3.5-3.5-3.5-9.2,0-12.7
			C48.1,46.1,53.9,46.1,57.4,49.6z"/>
		<path class="st0" d="M66,33.9c2,2,2,5.1,0,7.1c-1,1-2.3,1.5-3.5,1.5c-1.3,0-2.6-0.5-3.5-1.5c-2-2-2-5.1,0-7.1
			C60.9,32,64.1,32,66,33.9z"/>
	</g>
	<g>
		<defs>
			<path id="SVGID_3_" d="M33,46c0-3.3,2.7-6,6-6h10c3.3,0,6,2.7,6,6v20c0,3.3-2.7,6-6,6H39c-3.3,0-6-2.7-6-6V46z"/>
		</defs>
		<clipPath id="SVGID_4_">
			<use xlink:href="#SVGID_3_"  style="overflow:visible;"/>
		</clipPath>
		<g class="st1">
			<defs>
				<rect id="SVGID_5_" width="100" height="100"/>
			</defs>
			<clipPath id="SVGID_6_">
				<use xlink:href="#SVGID_5_"  style="overflow:visible;"/>
			</clipPath>
			<g class="st2">
				<g>
					<defs>
						<rect id="SVGID_7_" x="3" y="10" width="82" height="92"/>
					</defs>
					<clipPath id="SVGID_8_">
						<use xlink:href="#SVGID_7_"  style="overflow:visible;"/>
					</clipPath>
					<g class="st3">
						<defs>
							<rect id="SVGID_9_" x="33" y="40" width="22" height="32"/>
						</defs>
						<clipPath id="SVGID_10_">
							<use xlink:href="#SVGID_9_"  style="overflow:visible;"/>
						</clipPath>
						<path class="st4" d="M33,46c0-3.3,2.7-6,6-6h10c3.3,0,6,2.7,6,6v20c0,3.3-2.7,6-6,6H39c-3.3,0-6-2.7-6-6V46z"/>
					</g>
				</g>
			</g>
		</g>
	</g>
	<g>
		<defs>
			<path id="SVGID_11_" d="M38,37.5c0-3,2.5-5.5,5.5-5.5h1c3,0,5.5,2.5,5.5,5.5V43H38V37.5z"/>
		</defs>
		<clipPath id="SVGID_12_">
			<use xlink:href="#SVGID_11_"  style="overflow:visible;"/>
		</clipPath>
		<g class="st5">
			<defs>
				<rect id="SVGID_13_" width="100" height="100"/>
			</defs>
			<clipPath id="SVGID_14_">
				<use xlink:href="#SVGID_13_"  style="overflow:visible;"/>
			</clipPath>
			<g class="st6">
				<g>
					<defs>
						<rect id="SVGID_15_" x="8" y="2" width="72" height="71"/>
					</defs>
					<clipPath id="SVGID_16_">
						<use xlink:href="#SVGID_15_"  style="overflow:visible;"/>
					</clipPath>
					<g class="st7">
						<defs>
							<rect id="SVGID_17_" x="38" y="32" width="12" height="11"/>
						</defs>
						<clipPath id="SVGID_18_">
							<use xlink:href="#SVGID_17_"  style="overflow:visible;"/>
						</clipPath>
						<path class="st8" d="M38,37.5c0-3,2.5-5.5,5.5-5.5h1c3,0,5.5,2.5,5.5,5.5V43H38V37.5z"/>
					</g>
				</g>
			</g>
		</g>
	</g>
</g>
</svg>
