<?xml version="1.0" encoding="utf-8"?>
<!-- Generator: Adobe Illustrator 20.1.0, SVG Export Plug-In . SVG Version: 6.00 Build 0)  -->
<svg version="1.1" id="Layer_1" xmlns="http://www.w3.org/2000/svg" xmlns:xlink="http://www.w3.org/1999/xlink" x="0px" y="0px"
	 viewBox="0 0 218 114" style="enable-background:new 0 0 218 114;" xml:space="preserve">
<style type="text/css">
	.st0{fill:#FFFFFF;}
	.st1{fill:#0A1719;}
</style>
<title>logo-tag</title>
<desc>Created with Sketch.</desc>
<g id="Page-1">
	<g id="logo-tag">
		<rect id="Rectangle-path" class="st0" width="218" height="114"/>
		<path id="Shape" class="st1" d="M65,93.5c0,0.8-0.7,1.5-1.5,1.5h-42c-0.8,0-1.5-0.7-1.5-1.5v-47c0-0.8,0.7-1.5,1.5-1.5h42
			c0.8,0,1.5,0.7,1.5,1.5V93.5L65,93.5z M23,92h39V48H23V92L23,92z"/>
		<g id="Group" transform="translate(26.000000, 56.000000)">
			<path id="Shape_1_" class="st1" d="M16.7,3.6c7.2,0,13,5.8,13,13s-5.8,13-13,13s-13-5.8-13-13S9.5,3.6,16.7,3.6L16.7,3.6z
				 M16.7,0.6L16.7,0.6c-8.8,0-16,7.2-16,16l0,0c0,8.8,7.2,16,16,16l0,0c8.8,0,16-7.2,16-16l0,0C32.7,7.8,25.5,0.6,16.7,0.6
				L16.7,0.6L16.7,0.6z"/>
			<path id="Shape_2_" class="st1" d="M16.9,26c-5.1,0-9.3-4.2-9.3-9.3c0-0.8,0.7-1.5,1.5-1.5c0.8,0,1.5,0.7,1.5,1.5
				c0,3.5,2.8,6.3,6.3,6.3c0.8,0,1.5,0.7,1.5,1.5S17.7,26,16.9,26L16.9,26z"/>
			<path id="Shape_3_" class="st1" d="M24.6,18.3c-0.8,0-1.5-0.7-1.5-1.5c0-3.5-2.8-6.3-6.3-6.3c-0.8,0-1.5-0.7-1.5-1.5
				s0.7-1.5,1.5-1.5c5.1,0,9.3,4.2,9.3,9.3C26.1,17.6,25.5,18.3,24.6,18.3L24.6,18.3z"/>
		</g>
		<path id="Shape_4_" class="st1" d="M35.1,54.9h-6.4c-0.8,0-1.5-0.7-1.5-1.5c0-0.8,0.7-1.5,1.5-1.5h6.4c0.8,0,1.5,0.7,1.5,1.5
			C36.6,54.2,35.9,54.9,35.1,54.9L35.1,54.9z"/>
		<path id="Shape_5_" class="st1" d="M95.2,77.5l3.7-19.9c0-0.3,0.2-0.6,0.4-0.7c0.2-0.2,0.4-0.2,0.7-0.2h1.4c0.4,0,0.8,0.4,0.8,0.8
			v0.3L97.8,80c-0.1,0.5-0.3,1-0.6,1.4c-0.3,0.3-0.7,0.5-1.2,0.5h-1.4c-0.5,0-0.9-0.1-1.2-0.5c-0.3-0.4-0.5-0.9-0.7-1.4l-3.3-12
			l-3.3,12c-0.1,0.5-0.3,1-0.7,1.4c-0.3,0.3-0.7,0.5-1.2,0.5h-1.4c-0.4,0-0.9-0.1-1.2-0.4c-0.3-0.4-0.5-0.9-0.6-1.4l-4.4-22.3v-0.3
			c0-0.4,0.4-0.8,0.8-0.8h1.4c0.3,0,0.5,0.1,0.7,0.2c0.2,0.2,0.4,0.5,0.4,0.7l3.7,19.9l4-14.3c0.1-0.3,0.2-0.5,0.4-0.7
			c0.2-0.2,0.5-0.4,0.9-0.3H90c0.3,0,0.6,0.1,0.9,0.3c0.2,0.2,0.3,0.4,0.4,0.7L95.2,77.5z"/>
		<path id="Shape_6_" class="st1" d="M116.2,70v-0.5c0.1-1-0.4-2.1-1.2-2.7c-0.9-0.7-1.9-1-3-1c-0.8,0-1.6,0.1-2.2,0.5
			c-0.6,0.4-1.1,0.9-1.5,1.5c-0.1,0.2-0.3,0.3-0.5,0.4c-0.2,0.1-0.4,0.1-0.7,0.1H106c-0.3,0-0.5-0.1-0.7-0.3
			c-0.2-0.2-0.3-0.4-0.3-0.7c0.1-0.8,0.5-1.6,1.1-2.1c0.7-0.8,1.6-1.4,2.5-1.8c1.1-0.5,2.2-0.7,3.4-0.7c2-0.1,3.9,0.6,5.4,1.9
			c1.4,1.4,2.2,3.3,2.1,5.3v11c0,0.6-0.4,1-1,1h-1.3c-0.6,0-1-0.4-1-1v-1.5c-0.5,1-1.4,1.7-2.4,2.1c-1.2,0.5-2.5,0.8-3.7,0.8
			c-1.1,0-2.2-0.2-3.3-0.7c-0.9-0.4-1.7-1-2.2-1.8c-0.5-0.8-0.8-1.7-0.8-2.6c-0.1-1.7,0.7-3.2,2-4.2c1.6-1.1,3.4-1.8,5.4-2.1
			L116.2,70z M116.2,72.9l-4.2,0.7c-1.3,0.1-2.5,0.5-3.6,1.2c-0.8,0.4-1.3,1.1-1.3,2c0,0.6,0.3,1.2,0.8,1.6c0.7,0.5,1.6,0.8,2.5,0.7
			c1.5,0.1,3-0.5,4.2-1.5c1.1-1,1.7-2.4,1.6-3.8L116.2,72.9L116.2,72.9z"/>
		<path id="Shape_7_" class="st1" d="M123.5,68.2c0-1,0.3-1.9,0.8-2.7c0.6-0.9,1.4-1.6,2.4-2c1.2-0.5,2.5-0.8,3.8-0.7
			c1.3,0,2.6,0.2,3.9,0.7c0.9,0.3,1.8,0.9,2.5,1.6c0.5,0.5,0.8,1.2,0.9,1.9c0,0.2-0.1,0.5-0.3,0.6c-0.2,0.2-0.4,0.3-0.7,0.3h-1.2
			c-0.4,0-0.8-0.2-1.1-0.5c-0.7-1-2.1-1.4-3.9-1.4c-0.9,0-1.9,0.2-2.7,0.6c-0.6,0.3-1,1-1,1.7c0,0.5,0.1,1,0.5,1.4
			c0.4,0.4,1,0.6,1.5,0.8c0.7,0.2,1.9,0.5,3.6,0.9c1.7,0.2,3.2,1,4.5,2.1c0.9,0.9,1.4,2.1,1.3,3.4c0,1-0.3,2-0.9,2.7
			c-0.7,0.9-1.6,1.6-2.6,2c-1.3,0.5-2.6,0.8-4,0.8c-1.3,0-2.7-0.2-3.9-0.7c-1-0.4-1.9-1-2.7-1.7c-0.5-0.5-0.9-1.2-0.9-1.9
			c0-0.2,0.1-0.5,0.3-0.6c0.2-0.1,0.4-0.2,0.7-0.2h1.3c0.2,0,0.4,0,0.6,0c0.2,0.1,0.4,0.2,0.5,0.4c0.8,1.1,2.2,1.7,4.2,1.7
			c1,0,2.1-0.2,3-0.7c0.7-0.3,1.2-1,1.3-1.8c0-0.5-0.2-1.1-0.6-1.4c-0.5-0.4-1.2-0.7-1.8-0.9c-0.8-0.2-2-0.5-3.7-0.9
			C125.3,72.8,123.5,71,123.5,68.2L123.5,68.2z"/>
		<path id="Shape_8_" class="st1" d="M158.4,81.6c-0.2,0.2-0.4,0.3-0.7,0.3h-1.3c-0.6,0-1-0.4-1-1v-9.5c0.1-1.5-0.4-3-1.3-4.1
			c-2.1-1.9-5.3-1.9-7.4,0c-1,1.1-1.5,2.6-1.3,4.1v9.5c0,0.6-0.4,1-1,1H143c-0.6,0-1-0.4-1-1V57.2c0-0.6,0.4-1,1-1h1.3
			c0.6,0,1,0.4,1,1v8c0.6-0.7,1.3-1.3,2.2-1.8c1.1-0.5,2.2-0.7,3.4-0.7c1.4,0,2.8,0.3,4,1c1.2,0.6,2.1,1.6,2.8,2.8
			c0.7,1.3,1,2.8,1,4.3v10C158.7,81.1,158.5,81.4,158.4,81.6L158.4,81.6z"/>
		<path id="Shape_9_" class="st1" d="M166.7,60c-0.2,0.2-0.4,0.3-0.7,0.3h-2c-0.6,0-1-0.4-1-1v-2c0-0.6,0.4-1,1-1h2c0.6,0,1,0.4,1,1
			v2C167,59.6,166.9,59.8,166.7,60L166.7,60z M166.3,81.6c-0.2,0.2-0.4,0.3-0.7,0.3h-1.3c-0.6,0-1-0.4-1-1V64.1c0-0.6,0.4-1,1-1h1.3
			c0.6,0,1,0.4,1,1v16.8C166.7,81.1,166.5,81.4,166.3,81.6L166.3,81.6z"/>
		<path id="Shape_10_" class="st1" d="M181.7,63.1c0.6,0,1,0.4,1,1v1.2c0,0.6-0.4,1-1,1h-4.6v14.6c0,0.6-0.4,1-1,1h-1.3
			c-0.6,0-1-0.4-1-1V66.2h-3c-0.6,0-1-0.4-1-1v-1.1c0-0.6,0.4-1,1-1h3v-1.8c-0.1-1.7,0.4-3.3,1.4-4.6c1.2-1.1,2.9-1.6,4.5-1.5h2.3
			c0.6,0,1,0.4,1,1v1.2c0,0.6-0.4,1-1,1h-1.9c-0.9-0.1-1.8,0.2-2.4,0.8c-0.5,0.7-0.7,1.5-0.6,2.4v1.6L181.7,63.1L181.7,63.1z"/>
		<path id="Shape_11_" class="st1" d="M191.1,88.7h-1.5c-0.5,0-0.9-0.4-0.9-0.9c0-0.1,0-0.2,0-0.2l3.5-7.6l-7.1-15.8
			c0-0.1,0-0.2,0-0.2c0-0.5,0.4-0.9,0.9-0.9h1.5c0.5,0,0.9,0.4,1,0.9l5.6,12.3l5.6-12.2c0.1-0.5,0.5-0.8,1-0.9h1.5
			c0.2,0,0.5,0.1,0.6,0.2c0.2,0.2,0.3,0.4,0.3,0.6c0,0.1,0,0.2,0,0.2l-10.9,23.6C192,88.3,191.6,88.7,191.1,88.7L191.1,88.7z"/>
	</g>
</g>
</svg>
