<svg id="Layer_1" data-name="Layer 1" xmlns="http://www.w3.org/2000/svg" width="218" height="114" viewBox="0 0 218 114"><defs><style>.cls-1{fill:#fff;}.cls-2{fill:#3fa3ba;}</style></defs><title>logo-tag</title><rect class="cls-1" width="218" height="114"/><path class="cls-2" d="M3364.81,359.44l3.39-18.37a1.11,1.11,0,0,1,.38-0.68,1,1,0,0,1,.65-0.22h1.33a0.74,0.74,0,0,1,.73.73l0,0.27-4.09,20.53a3.28,3.28,0,0,1-.53,1.31,1.32,1.32,0,0,1-1.1.42h-1.33a1.33,1.33,0,0,1-1.1-.45,3.53,3.53,0,0,1-.6-1.28l-3.06-11.1-3.06,11.1a3.54,3.54,0,0,1-.6,1.28,1.33,1.33,0,0,1-1.1.45h-1.33a1.32,1.32,0,0,1-1.1-.42,3.27,3.27,0,0,1-.53-1.31l-4.09-20.53,0-.27a0.74,0.74,0,0,1,.73-0.73h1.33a1,1,0,0,1,.65.22,1.12,1.12,0,0,1,.38.68l3.39,18.37,3.65-13.16a1.45,1.45,0,0,1,.33-0.65,1,1,0,0,1,.8-0.32H3360a1,1,0,0,1,.8.32,1.46,1.46,0,0,1,.33.65Z" transform="translate(-3272.59 -280.76)"/><path class="cls-2" d="M3386.41,348.07a8.78,8.78,0,0,1,2.06,6.15v0.9a0.91,0.91,0,0,1-.9.9h-11.43v0.2a4.79,4.79,0,0,0,1.35,3.44,4.54,4.54,0,0,0,3.31,1.25,6.17,6.17,0,0,0,2.57-.43,5.28,5.28,0,0,0,1.64-1.23,1.78,1.78,0,0,1,.48-0.37,1.41,1.41,0,0,1,.58-0.1h1a0.9,0.9,0,0,1,.66.27,0.76,0.76,0,0,1,.23.63,3.64,3.64,0,0,1-1,1.84,6.52,6.52,0,0,1-2.43,1.59,9.91,9.91,0,0,1-3.77.65,7.31,7.31,0,0,1-3.79-1,7.2,7.2,0,0,1-2.64-2.71,9.56,9.56,0,0,1-1.18-3.89q-0.07-1-.07-1.53t0.07-1.53a8.92,8.92,0,0,1,1.18-3.72,7.28,7.28,0,0,1,2.62-2.62,7.39,7.39,0,0,1,3.8-1A7.22,7.22,0,0,1,3386.41,348.07Zm-0.93,5.15v-0.1a4.25,4.25,0,0,0-1.28-3.24,4.75,4.75,0,0,0-3.41-1.21,4.68,4.68,0,0,0-3.27,1.23,4.26,4.26,0,0,0-1.38,3.22v0.1h9.34Z" transform="translate(-3272.59 -280.76)"/><path class="cls-2" d="M3407.46,359.44l3.39-18.37a1.11,1.11,0,0,1,.38-0.68,1,1,0,0,1,.65-0.22h1.33a0.74,0.74,0,0,1,.73.73l0,0.27-4.09,20.53a3.28,3.28,0,0,1-.53,1.31,1.32,1.32,0,0,1-1.1.42h-1.33a1.33,1.33,0,0,1-1.1-.45,3.53,3.53,0,0,1-.6-1.28l-3.06-11.1-3.06,11.1a3.54,3.54,0,0,1-.6,1.28,1.33,1.33,0,0,1-1.1.45H3396a1.32,1.32,0,0,1-1.1-.42,3.27,3.27,0,0,1-.53-1.31l-4.09-20.53,0-.27a0.74,0.74,0,0,1,.73-0.73h1.33a1,1,0,0,1,.65.22,1.12,1.12,0,0,1,.38.68l3.39,18.37,3.65-13.16a1.45,1.45,0,0,1,.33-0.65,1,1,0,0,1,.8-0.32h1.13a1,1,0,0,1,.8.32,1.46,1.46,0,0,1,.33.65Z" transform="translate(-3272.59 -280.76)"/><path class="cls-2" d="M3426.82,352.49v-0.43a3.05,3.05,0,0,0-1.08-2.51,4.3,4.3,0,0,0-2.81-.88,4,4,0,0,0-2.08.45,5,5,0,0,0-1.41,1.35,1.09,1.09,0,0,1-.43.37,1.63,1.63,0,0,1-.63.1h-1a0.92,0.92,0,0,1-.65-0.27,0.74,0.74,0,0,1-.25-0.63,3.51,3.51,0,0,1,1-2,6.61,6.61,0,0,1,2.34-1.61,7.8,7.8,0,0,1,3.12-.63,7.17,7.17,0,0,1,5,1.73,6.21,6.21,0,0,1,1.91,4.85v10.13a0.91,0.91,0,0,1-.9.9h-1.23a0.91,0.91,0,0,1-.9-0.9v-1.36a3.89,3.89,0,0,1-2.26,1.89,9.17,9.17,0,0,1-3.46.7,7.12,7.12,0,0,1-3-.61,4.82,4.82,0,0,1-2-1.68,4.19,4.19,0,0,1-.71-2.39,4.63,4.63,0,0,1,1.86-3.9,11,11,0,0,1,5-1.91Zm0,2.66-3.92.63a9,9,0,0,0-3.36,1.08,2.18,2.18,0,0,0-1.2,1.88,2,2,0,0,0,.76,1.5,3.47,3.47,0,0,0,2.33.66,5.55,5.55,0,0,0,3.89-1.36,4.58,4.58,0,0,0,1.5-3.55v-0.83Z" transform="translate(-3272.59 -280.76)"/><path class="cls-2" d="M3433.55,350.8a4.49,4.49,0,0,1,.73-2.49,5.09,5.09,0,0,1,2.18-1.81,8.27,8.27,0,0,1,3.54-.68,9.56,9.56,0,0,1,3.55.6,5.82,5.82,0,0,1,2.28,1.5,2.69,2.69,0,0,1,.78,1.73,0.77,0.77,0,0,1-.27.58,0.89,0.89,0,0,1-.63.25h-1.1a1.2,1.2,0,0,1-1-.47q-1-1.33-3.62-1.33a4.79,4.79,0,0,0-2.48.56,1.74,1.74,0,0,0-.95,1.56,1.64,1.64,0,0,0,.47,1.26,3.41,3.41,0,0,0,1.4.7q0.93,0.27,3.29.8a8,8,0,0,1,4.15,1.93,4.42,4.42,0,0,1,1.23,3.16,4.2,4.2,0,0,1-.85,2.52,5.94,5.94,0,0,1-2.43,1.88,8.83,8.83,0,0,1-3.67.71,9.52,9.52,0,0,1-3.64-.65,6.81,6.81,0,0,1-2.44-1.58,2.68,2.68,0,0,1-.86-1.76,0.77,0.77,0,0,1,.27-0.58,0.89,0.89,0,0,1,.63-0.25h1.2a2,2,0,0,1,.53.07,0.82,0.82,0,0,1,.43.37q1.1,1.53,3.89,1.53a5.61,5.61,0,0,0,2.74-.65,1.88,1.88,0,0,0,1.18-1.61,1.58,1.58,0,0,0-.58-1.28,4.66,4.66,0,0,0-1.68-.8q-1.1-.31-3.42-0.81Q3433.55,354.72,3433.55,350.8Z" transform="translate(-3272.59 -280.76)"/><path class="cls-2" d="M3465.73,363.16a0.86,0.86,0,0,1-.63.27h-1.23a0.91,0.91,0,0,1-.9-0.9v-8.77a5.3,5.3,0,0,0-1.23-3.79,5.15,5.15,0,0,0-6.83,0,5.26,5.26,0,0,0-1.25,3.79v8.77a0.91,0.91,0,0,1-.9.9h-1.23a0.91,0.91,0,0,1-.9-0.9V340.73a0.91,0.91,0,0,1,.9-0.9h1.23a0.91,0.91,0,0,1,.9.9v7.34a5.69,5.69,0,0,1,2-1.61,6.89,6.89,0,0,1,3.14-.65,7.58,7.58,0,0,1,3.72.9,6.33,6.33,0,0,1,2.54,2.57,8.18,8.18,0,0,1,.91,4v9.27A0.86,0.86,0,0,1,3465.73,363.16Z" transform="translate(-3272.59 -280.76)"/><path class="cls-2" d="M3334.5,375.74h-38.76a1.38,1.38,0,0,1-1.38-1.38V331a1.38,1.38,0,0,1,1.38-1.38h38.76a1.38,1.38,0,0,1,1.38,1.38v43.37A1.38,1.38,0,0,1,3334.5,375.74ZM3297.13,373h36V332.36h-36V373Z" transform="translate(-3272.59 -280.76)"/><path class="cls-2" d="M3315.12,343a12,12,0,1,1-12,12,12,12,0,0,1,12-12m0-2.77h0A14.77,14.77,0,0,0,3300.36,355h0a14.77,14.77,0,0,0,14.77,14.77h0A14.77,14.77,0,0,0,3329.89,355h0a14.77,14.77,0,0,0-14.77-14.77h0Z" transform="translate(-3272.59 -280.76)"/><path class="cls-2" d="M3315.27,363.69a8.59,8.59,0,0,1-8.58-8.58,1.38,1.38,0,0,1,2.77,0,5.81,5.81,0,0,0,5.81,5.81A1.38,1.38,0,0,1,3315.27,363.69Z" transform="translate(-3272.59 -280.76)"/><path class="cls-2" d="M3322.46,356.5a1.38,1.38,0,0,1-1.38-1.38,5.81,5.81,0,0,0-5.81-5.81,1.38,1.38,0,0,1,0-2.77,8.59,8.59,0,0,1,8.58,8.58A1.38,1.38,0,0,1,3322.46,356.5Z" transform="translate(-3272.59 -280.76)"/><path class="cls-2" d="M3308.08,338.18h-5.87a1.38,1.38,0,0,1,0-2.77h5.87A1.38,1.38,0,0,1,3308.08,338.18Z" transform="translate(-3272.59 -280.76)"/></svg>