<svg id="Layer_1" data-name="Layer 1" xmlns="http://www.w3.org/2000/svg" viewBox="0 0 218 114"><defs><style>.cls-1{fill:#fff;}.cls-2{fill:#3fa3ba;}</style></defs><title>washify-tag</title><rect class="cls-1" width="218" height="114"/><path class="cls-2" d="M65,93.42a1.5,1.5,0,0,1-1.5,1.5h-42a1.5,1.5,0,0,1-1.5-1.5v-47a1.5,1.5,0,0,1,1.5-1.5h42a1.5,1.5,0,0,1,1.5,1.5v47Zm-42-1.5H62v-44H23v44Z"/><path class="cls-2" d="M41.7,59.6a13,13,0,1,1-13,13,13,13,0,0,1,13-13m0-3h0a16,16,0,0,0-16,16h0a16,16,0,0,0,16,16h0a16,16,0,0,0,16-16h0a16,16,0,0,0-16-16h0Z"/><path class="cls-2" d="M41.86,82a9.3,9.3,0,0,1-9.29-9.29,1.5,1.5,0,0,1,3,0A6.3,6.3,0,0,0,41.86,79,1.5,1.5,0,0,1,41.86,82Z"/><path class="cls-2" d="M49.65,74.26a1.5,1.5,0,0,1-1.5-1.5,6.3,6.3,0,0,0-6.29-6.29,1.5,1.5,0,0,1,0-3,9.3,9.3,0,0,1,9.29,9.29A1.5,1.5,0,0,1,49.65,74.26Z"/><path class="cls-2" d="M34.06,54.92H27.7a1.5,1.5,0,0,1,0-3h6.36A1.5,1.5,0,0,1,34.06,54.92Z"/><path class="cls-2" d="M95.23,77.51L98.9,57.61a1.2,1.2,0,0,1,.41-0.74,1.12,1.12,0,0,1,.7-0.23h1.44a0.8,0.8,0,0,1,.79.79l0,0.29L97.78,80a3.56,3.56,0,0,1-.58,1.42,1.43,1.43,0,0,1-1.19.45H94.58a1.44,1.44,0,0,1-1.19-.49A3.83,3.83,0,0,1,92.74,80l-3.31-12L86.12,80a3.83,3.83,0,0,1-.65,1.39,1.44,1.44,0,0,1-1.19.49H82.84a1.43,1.43,0,0,1-1.19-.45A3.54,3.54,0,0,1,81.08,80L76.65,57.71l0-.29a0.8,0.8,0,0,1,.79-0.79h1.44a1.12,1.12,0,0,1,.7.23,1.21,1.21,0,0,1,.41.74l3.67,19.91,4-14.26a1.57,1.57,0,0,1,.36-0.7,1.07,1.07,0,0,1,.86-0.34H90a1.07,1.07,0,0,1,.86.34,1.58,1.58,0,0,1,.36.7Z"/><path class="cls-2" d="M116.2,70V69.52A3.31,3.31,0,0,0,115,66.8a4.66,4.66,0,0,0-3-1,4.38,4.38,0,0,0-2.25.49,5.42,5.42,0,0,0-1.53,1.46,1.17,1.17,0,0,1-.47.4,1.77,1.77,0,0,1-.68.11H106a1,1,0,0,1-.7-0.29,0.8,0.8,0,0,1-.27-0.68,3.81,3.81,0,0,1,1.06-2.14,7.17,7.17,0,0,1,2.54-1.75,8.46,8.46,0,0,1,3.38-.68,7.77,7.77,0,0,1,5.42,1.87,6.72,6.72,0,0,1,2.07,5.26v11a1,1,0,0,1-1,1h-1.33a1,1,0,0,1-1-1V79.39a4.21,4.21,0,0,1-2.45,2.05,9.94,9.94,0,0,1-3.74.76,7.71,7.71,0,0,1-3.28-.67,5.22,5.22,0,0,1-2.21-1.82,4.54,4.54,0,0,1-.77-2.59,5,5,0,0,1,2-4.23,11.9,11.9,0,0,1,5.36-2.07Zm0,2.88-4.25.68a9.73,9.73,0,0,0-3.64,1.17,2.37,2.37,0,0,0-1.3,2,2.11,2.11,0,0,0,.83,1.62,3.76,3.76,0,0,0,2.52.72,6,6,0,0,0,4.21-1.48,5,5,0,0,0,1.62-3.85v-0.9Z"/><path class="cls-2" d="M123.49,68.15a4.87,4.87,0,0,1,.79-2.7,5.51,5.51,0,0,1,2.36-2,9,9,0,0,1,3.83-.74,10.36,10.36,0,0,1,3.85.65A6.32,6.32,0,0,1,136.79,65a2.92,2.92,0,0,1,.85,1.87,0.84,0.84,0,0,1-.29.63,1,1,0,0,1-.68.27h-1.19a1.3,1.3,0,0,1-1.08-.5q-1.12-1.44-3.92-1.44a5.19,5.19,0,0,0-2.68.61,1.89,1.89,0,0,0-1,1.69,1.77,1.77,0,0,0,.5,1.37,3.69,3.69,0,0,0,1.51.76q1,0.29,3.56.86a8.66,8.66,0,0,1,4.5,2.09,4.79,4.79,0,0,1,1.33,3.42,4.55,4.55,0,0,1-.92,2.74,6.44,6.44,0,0,1-2.63,2,9.57,9.57,0,0,1-4,.77,10.32,10.32,0,0,1-3.94-.7,7.38,7.38,0,0,1-2.65-1.71,2.91,2.91,0,0,1-.94-1.91,0.84,0.84,0,0,1,.29-0.63A1,1,0,0,1,124.1,77h1.3A2.11,2.11,0,0,1,126,77a0.89,0.89,0,0,1,.47.4q1.19,1.66,4.21,1.66a6.08,6.08,0,0,0,3-.7,2,2,0,0,0,1.28-1.75,1.71,1.71,0,0,0-.63-1.39,5,5,0,0,0-1.82-.86q-1.19-.34-3.71-0.88Q123.49,72.4,123.49,68.15Z"/><path class="cls-2" d="M158.36,81.55a0.93,0.93,0,0,1-.68.29h-1.33a1,1,0,0,1-1-1v-9.5a5.75,5.75,0,0,0-1.33-4.1,5.57,5.57,0,0,0-7.4,0,5.69,5.69,0,0,0-1.35,4.1v9.5a1,1,0,0,1-1,1H143a1,1,0,0,1-1-1V57.25a1,1,0,0,1,1-1h1.33a1,1,0,0,1,1,1v8a6.16,6.16,0,0,1,2.18-1.75,7.46,7.46,0,0,1,3.4-.7,8.22,8.22,0,0,1,4,1,6.86,6.86,0,0,1,2.75,2.79,8.86,8.86,0,0,1,1,4.3v10A0.94,0.94,0,0,1,158.36,81.55Z"/><path class="cls-2" d="M166.7,60a0.93,0.93,0,0,1-.68.29H164a1,1,0,0,1-1-1V57.25a1,1,0,0,1,1-1H166a1,1,0,0,1,1,1V59.3A0.93,0.93,0,0,1,166.7,60Zm-0.36,21.56a0.93,0.93,0,0,1-.68.29h-1.33a1,1,0,0,1-1-1V64.09a1,1,0,0,1,1-1h1.33a1,1,0,0,1,1,1V80.86A0.94,0.94,0,0,1,166.34,81.55Z"/><path class="cls-2" d="M181.69,63.11a1,1,0,0,1,1,1v1.15a1,1,0,0,1-1,1h-4.57V80.86a1,1,0,0,1-1,1h-1.33a1,1,0,0,1-1-1V66.21h-3a1,1,0,0,1-1-1V64.09a1,1,0,0,1,1-1h3v-1.8a6.46,6.46,0,0,1,1.44-4.61,6,6,0,0,1,4.5-1.51h2.27a1,1,0,0,1,1,1v1.15a1,1,0,0,1-1,1h-1.91a2.86,2.86,0,0,0-2.39.83,3.86,3.86,0,0,0-.63,2.38v1.62h4.57Z"/><path class="cls-2" d="M191.08,88.67h-1.48a0.86,0.86,0,0,1-.86-0.86,0.8,0.8,0,0,1,0-.25L192.24,80l-7.13-15.8a0.78,0.78,0,0,1,0-.25,0.86,0.86,0,0,1,.86-0.86h1.48a1.11,1.11,0,0,1,1,.86L194,76.22,199.62,64a1.11,1.11,0,0,1,1-.86h1.48A0.86,0.86,0,0,1,203,64a0.81,0.81,0,0,1,0,.25L192.13,87.81A1.11,1.11,0,0,1,191.08,88.67Z"/></svg>