<?xml version="1.0" encoding="UTF-8"?>
<svg width="840px" height="120px" viewBox="0 0 840 120" version="1.1" xmlns="http://www.w3.org/2000/svg" xmlns:xlink="http://www.w3.org/1999/xlink">
    <!-- Generator: Sketch 40.3 (33839) - http://www.bohemiancoding.com/sketch -->
    <title>mid-range</title>
    <desc>Created with Sketch.</desc>
    <defs>
        <rect id="path-1" x="0" y="0" width="840" height="120" rx="8"></rect>
    </defs>
    <g id="Page-1" stroke="none" stroke-width="1" fill="none" fill-rule="evenodd">
        <g id="mid-range">
            <g id="Page-1">
                <g id="Group-4">
                    <g id="Rectangle-Copy-Clipped">
                        <mask id="mask-2" fill="white">
                            <use xlink:href="#path-1"></use>
                        </mask>
                        <g id="path-1"></g>
                        <g id="Rectangle-Copy" mask="url(#mask-2)" stroke="#979797" stroke-width="4" fill="#FFFFFF">
                            <rect id="path-1" x="0" y="0" width="840" height="120" rx="8"></rect>
                        </g>
                    </g>
                    <text id="Mid-Range" fill="#0A1719" font-family="Rubik-Regular, Rubik" font-size="24" font-weight="normal">
                        <tspan x="105" y="66">Mid-Range</tspan>
                    </text>
                    <text id="Set-Location" fill="#EA8F97" font-family="Rubik-Regular, Rubik" font-size="20" font-weight="normal" text-decoration="underline">
                        <tspan x="507" y="67">Set Location</tspan>
                    </text>
                    <text id="Set-Start-Date" fill="#EA8F97" font-family="Rubik-Regular, Rubik" font-size="20" font-weight="normal" text-decoration="underline">
                        <tspan x="675" y="67">Set Start Date</tspan>
                    </text>
                    <g id="Group-2-Copy" transform="translate(36.000000, 35.000000)" fill="#3FA3BA">
                        <path d="M45,48.5 C45,49.3284271 44.3284271,50 43.5,50 L1.5,50 C0.6715729,50 0,49.3284271 0,48.5 L0,1.5 C0,0.6715729 0.6715729,0 1.5,0 L43.5,0 C44.3284271,0 45,0.6715729 45,1.5 L45,48.5 L45,48.5 L45,48.5 L45,48.5 Z M3,47 L42,47 L42,3 L3,3 L3,47 L3,47 L3,47 L3,47 Z" id="Shape"></path>
                        <g id="Group" transform="translate(6.000000, 11.000000)">
                            <path d="M16.7,3.6 C23.8797017,3.6 29.7,9.42029825 29.7,16.6 C29.7,23.7797017 23.8797017,29.6 16.7,29.6 C9.52029825,29.6 3.7,23.7797017 3.7,16.6 C3.7,9.42029825 9.52029825,3.6 16.7,3.6 L16.7,3.6 L16.7,3.6 L16.7,3.6 Z M16.7,0.6 L16.7,0.6 C7.863444,0.6 0.7,7.763444 0.7,16.6 L0.7,16.6 C0.7,25.436556 7.863444,32.6 16.7,32.6 L16.7,32.6 C25.536556,32.6 32.7,25.436556 32.7,16.6 L32.7,16.6 C32.7,7.763444 25.536556,0.6 16.7,0.6 L16.7,0.6 L16.7,0.6 L16.7,0.6 L16.7,0.6 Z" id="Shape"></path>
                            <path d="M16.86,26 C11.7315593,25.9944885 7.57551149,21.8384407 7.57,16.71 C7.57,15.8815729 8.24157288,15.21 9.07,15.21 C9.89842712,15.21 10.57,15.8815729 10.57,16.71 C10.5755061,20.1815878 13.3884122,22.9944939 16.86,23 C17.6884271,23 18.36,23.6715729 18.36,24.5 C18.36,25.3284271 17.6884271,26 16.86,26 L16.86,26 L16.86,26 L16.86,26 Z" id="Shape"></path>
                            <path d="M24.65,18.26 C23.8215729,18.26 23.15,17.5884271 23.15,16.76 C23.1444939,13.2884122 20.3315878,10.4755061 16.86,10.47 C16.0315729,10.47 15.36,9.79842712 15.36,8.97 C15.36,8.14157288 16.0315729,7.47 16.86,7.47 C21.9884407,7.47551149 26.1444885,11.6315593 26.15,16.76 C26.15,17.5884271 25.4784271,18.26 24.65,18.26 L24.65,18.26 L24.65,18.26 L24.65,18.26 Z" id="Shape"></path>
                        </g>
                        <path d="M14.86,10 L8.5,10 C7.6715729,10 7,9.3284271 7,8.5 C7,7.6715729 7.6715729,7 8.5,7 L14.86,7 C15.6884271,7 16.36,7.6715729 16.36,8.5 C16.36,9.3284271 15.6884271,10 14.86,10 L14.86,10 L14.86,10 L14.86,10 Z" id="Shape"></path>
                    </g>
                </g>
            </g>
        </g>
    </g>
</svg>