<?xml version="1.0" encoding="utf-8"?>
<!-- Generator: Adobe Illustrator 20.1.0, SVG Export Plug-In . SVG Version: 6.00 Build 0)  -->
<svg version="1.1" id="Layer_1" xmlns="http://www.w3.org/2000/svg" xmlns:xlink="http://www.w3.org/1999/xlink" x="0px" y="0px"
	 viewBox="0 0 100 100" style="enable-background:new 0 0 100 100;" xml:space="preserve">
<style type="text/css">
	.st0{fill:#EA8F97;}
	.st1{fill:none;stroke:#EA8F97;stroke-width:3;stroke-miterlimit:10;}
</style>
<path class="st0" d="M60.2,62c-0.6-0.5-1.5-0.4-2,0.1c-0.1,0.1-0.9,0.5-3.1,0.5c-1.6,0-2.8-0.4-4.1-0.9c-1.3-0.5-2.6-0.9-4.1-0.9
	c0.9-1.5,1.5-3.5,1.5-5.8c0-0.7-0.1-1.4-0.2-2.1h5.4c0.8,0,1.5-0.7,1.5-1.5c0-0.8-0.7-1.5-1.5-1.5h-6.3c-0.6-1.3-1.4-2.5-2.1-3.5
	C44,44.6,43,43.2,43,41.5c0-3.7,4.5-6.1,7.5-6.1c2.9,0,4.2,1.4,5.3,2.5l0.3,0.3c0.6,0.6,1.6,0.6,2.2,0c0.6-0.6,0.6-1.6,0-2.2
	L58,35.8c-1.2-1.3-3.3-3.4-7.5-3.4c-4.4,0-10.5,3.5-10.5,9.2c0,2.6,1.3,4.5,2.6,6.4c0.4,0.6,0.8,1.2,1.2,1.8h-5.5
	c-0.8,0-1.5,0.7-1.5,1.5s0.7,1.5,1.5,1.5h6.8c0.2,0.6,0.2,1.3,0.2,2.1c0,4.3-2.9,6.8-4.1,7.5c-0.4,0.2-0.6,0.4-0.6,0.4
	c-0.7,0.5-0.9,1.4-0.4,2.1c0.3,0.5,0.8,0.7,1.3,0.7c0.2,0,0.5-0.1,0.7-0.2c0,0,0.3-0.1,0.6-0.4c0.8-0.5,2.5-1.3,4-1.3
	c1,0,2,0.3,3.1,0.7c1.4,0.5,3.1,1.1,5.2,1.1c3.8,0,5-1.1,5.4-1.5C61,63.5,60.9,62.5,60.2,62z"/>
<path class="st1" d="M73.2,26.8c12.8,12.8,12.8,33.5,0,46.3c-6.4,6.4-14.8,9.6-23.2,9.6c-8.4,0-16.8-3.2-23.2-9.6
	c-12.8-12.8-12.8-33.5,0-46.3S60.4,14.1,73.2,26.8z"/>
</svg>
