<?xml version="1.0" encoding="utf-8"?>
<!-- Generator: Adobe Illustrator 20.1.0, SVG Export Plug-In . SVG Version: 6.00 Build 0)  -->
<svg version="1.1" id="Layer_1" xmlns="http://www.w3.org/2000/svg" xmlns:xlink="http://www.w3.org/1999/xlink" x="0px" y="0px"
	 viewBox="0 0 100 100" style="enable-background:new 0 0 100 100;" xml:space="preserve">
<style type="text/css">
	.st0{fill:#42A3B9;}
	.st1{fill:none;stroke:#42A3B9;stroke-width:3;stroke-linecap:round;stroke-miterlimit:10;}
	.st2{fill:none;stroke:#42A3B9;stroke-width:3;stroke-linecap:round;stroke-linejoin:round;stroke-miterlimit:10;}
</style>
<g>
	<path class="st0" d="M57.5,33.9c0.2,0,0.4,0,0.6,0l-4,4c-2.2,2.2-2.4,5.7-0.4,7.9c1,1.2,2.5,1.8,4,1.9c0.1,0,0.1,0,0.2,0
		c1.5,0,2.9-0.6,4-1.7l4.1-4.1c0.2,2.5-0.7,5-2.5,6.8c-1.6,1.6-3.8,2.5-6.1,2.5c-0.4,0-0.7,0-1.1-0.1c-0.3,0-0.6-0.1-0.9-0.1
		c-2.1,0-4.2,0.9-5.8,2.5L37.8,65.5c-0.4,0.4-1,0.7-1.6,0.7c-0.6,0-1.2-0.2-1.6-0.7c-0.9-0.9-0.9-2.4,0-3.3l11.9-11.9
		c1.8-1.8,2.7-4.3,2.4-6.7c-0.3-2.7,0.6-5.3,2.5-7.2C52.9,34.8,55.2,33.9,57.5,33.9L57.5,33.9 M57.5,30.9c-3,0-6.1,1.2-8.3,3.4
		c-2.6,2.6-3.8,6.1-3.3,9.7c0.2,1.5-0.4,3-1.5,4.2L32.4,60.1c-2.1,2.1-2.1,5.4,0,7.5c1,1,2.4,1.6,3.8,1.6c1.4,0,2.7-0.5,3.8-1.6
		l11.9-11.9c1-1,2.3-1.6,3.6-1.6c0.2,0,0.4,0,0.6,0c0.5,0.1,1,0.1,1.5,0.1c3.1,0,6-1.2,8.2-3.4c3.4-3.4,4.4-8.7,2.4-13.1
		c-0.1-0.3-0.4-0.5-0.8-0.6c-0.1,0-0.1,0-0.2,0c-0.3,0-0.6,0.1-0.8,0.3l-6.5,6.5c-0.5,0.5-1.1,0.8-1.8,0.8c0,0-0.1,0-0.1,0
		c-0.7,0-1.4-0.3-1.9-0.9c-0.9-1-0.8-2.7,0.2-3.8l6.4-6.4c0.2-0.2,0.4-0.6,0.3-0.9c-0.1-0.3-0.3-0.6-0.6-0.8
		C60.7,31.2,59.1,30.9,57.5,30.9L57.5,30.9z"/>
</g>
<path class="st1" d="M50,82.8c-8.4,0-16.8-3.2-23.2-9.6c-12.8-12.8-12.8-33.5,0-46.3s33.5-12.8,46.3,0s12.8,33.5,0,46.3"/>
<polyline class="st2" points="81.7,72.5 73.2,73.4 72.3,64.9 "/>
</svg>
