<svg id="Layer_1" data-name="Layer 1" xmlns="http://www.w3.org/2000/svg" width="104.05" height="23.46" viewBox="0 0 104.05 23.46"><defs><style>.cls-1{fill:#3fa3ba;}</style></defs><title>wash-icons</title><path class="cls-1" d="M3397.9,1311.25l-11.55-19.37c-0.12-.21-0.35,0-0.59,0h0c-0.24,0-.47-0.17-0.59,0l-5.77,9.64-5.77,9.69a1,1,0,0,0,0,.84,0.86,0.86,0,0,0,.6.49h23.09a0.84,0.84,0,0,0,.6-0.47A1,1,0,0,0,3397.9,1311.25Zm-15.89-.09,7-12.19,2.54,4.4-4.49,7.79H3382Zm-1.43-8.86,5.18-8.93,2.45,4.28-7.8,13.51h-5Zm8.08,8.86,3.69-6.35,3.74,6.35h-7.43Z" transform="translate(-3293.95 -1291.61)"/><path class="cls-1" d="M3357,1292.3a0.69,0.69,0,0,0-.69-0.69h-22.08a0.69,0.69,0,0,0-.69.69v22.08a0.69,0.69,0,0,0,.69.69h22.08a0.69,0.69,0,0,0,.69-0.69V1292.3Zm-1.38,7.08A12.41,12.41,0,0,0,3349,1293h6.54v6.39Zm-0.69,3.81a9.66,9.66,0,1,1-9.66-9.66A9.67,9.67,0,0,1,3354.88,1303.2ZM3341.41,1293a12.41,12.41,0,0,0-6.54,6.39V1293h6.54Zm-6.54,14c1.38,3,3.51,6,6.54,6.68h-6.54V1307Zm14.16,6.68c3-.69,5.16-3.66,6.54-6.68v6.68H3349Z" transform="translate(-3293.95 -1291.61)"/><path class="cls-1" d="M3318.59,1292.49a0.69,0.69,0,0,0-.82.53l-0.35,1.65a8.37,8.37,0,0,0-3.79,1.31,6.18,6.18,0,0,1-3.76,1.15A6.72,6.72,0,0,1,3306,1296a8.6,8.6,0,0,0-9.23,0l-0.68.39-0.73-3.5a0.69,0.69,0,1,0-1.35.28l3.75,18.12a0.86,0.86,0,0,0,.68.71h16.32a0.86,0.86,0,0,0,.68-0.71l3.75-17.89A0.78,0.78,0,0,0,3318.59,1292.49Zm-4.45,18.12h-15.2l-2.61-12.68c0.39-.19.75-0.47,1.09-0.67a7.18,7.18,0,0,1,7.84-.06,8.08,8.08,0,0,0,4.62,1.33,7.5,7.5,0,0,0,4.46-1.35,8.46,8.46,0,0,1,2.79-.91Z" transform="translate(-3293.95 -1291.61)"/></svg>